<svg id="OBJECTS" xmlns="http://www.w3.org/2000/svg" xmlns:xlink="http://www.w3.org/1999/xlink" viewBox="0 0 1000 362.35"><defs><style>.cls-1{fill:url(#Degradado_sin_nombre_29);}.cls-2,.cls-8{opacity:0.55;}.cls-2{fill:url(#Degradado_sin_nombre_16);}.cls-3{fill:#fdfdfd;}.cls-4{fill:#0a4961;}.cls-5{fill:#13335e;}.cls-6{opacity:0.2;fill:url(#Degradado_sin_nombre_16-2);}.cls-16,.cls-7{opacity:0.4;}.cls-7{fill:url(#Degradado_sin_nombre_18);}.cls-8{fill:url(#Degradado_sin_nombre_5);}.cls-9{fill:#fcfaed;}.cls-10{fill:url(#Degradado_sin_nombre_15);}.cls-11{fill:url(#Degradado_sin_nombre_83);}.cls-12{fill:url(#Degradado_sin_nombre_94);}.cls-13{fill:#fff;}.cls-14{fill:url(#Degradado_sin_nombre_105);}.cls-15{fill:url(#Degradado_sin_nombre_106);}.cls-16{fill:url(#Degradado_sin_nombre_16-3);}</style><linearGradient id="Degradado_sin_nombre_29" x1="500" y1="361.06" x2="500" y2="-1.79" gradientUnits="userSpaceOnUse"><stop offset="0" stop-color="#0a4961"/><stop offset="0.49" stop-color="#163449"/><stop offset="1" stop-color="#202233"/></linearGradient><linearGradient id="Degradado_sin_nombre_16" x1="437.84" y1="202.09" x2="437.84" y2="250.44" gradientUnits="userSpaceOnUse"><stop offset="0" stop-color="#fff"/><stop offset="1" stop-color="#dcfcff" stop-opacity="0"/></linearGradient><linearGradient id="Degradado_sin_nombre_16-2" x1="499.72" y1="-13.63" x2="499.72" y2="332.25" xlink:href="#Degradado_sin_nombre_16"/><linearGradient id="Degradado_sin_nombre_18" x1="499.72" y1="104.46" x2="499.72" y2="356.55" gradientUnits="userSpaceOnUse"><stop offset="0" stop-color="#fff"/><stop offset="0.79" stop-color="#dcfcff" stop-opacity="0"/></linearGradient><linearGradient id="Degradado_sin_nombre_5" x1="580.82" y1="211.13" x2="580.82" y2="279.47" gradientUnits="userSpaceOnUse"><stop offset="0" stop-color="#fff"/><stop offset="0.63" stop-color="#dcfcff" stop-opacity="0"/></linearGradient><linearGradient id="Degradado_sin_nombre_15" x1="507.1" y1="129.96" x2="507.1" y2="355.43" gradientUnits="userSpaceOnUse"><stop offset="0" stop-color="#fff" stop-opacity="0"/><stop offset="0.13" stop-color="#f2ece1" stop-opacity="0.2"/><stop offset="0.35" stop-color="#ded2b5" stop-opacity="0.48"/><stop offset="0.55" stop-color="#cfbd93" stop-opacity="0.71"/><stop offset="0.73" stop-color="#c4ae7a" stop-opacity="0.87"/><stop offset="0.89" stop-color="#bda46b" stop-opacity="0.96"/><stop offset="1" stop-color="#bba166"/></linearGradient><linearGradient id="Degradado_sin_nombre_83" x1="493.85" y1="151.68" x2="493.85" y2="311.11" gradientTransform="translate(1000.67 372) rotate(180)" gradientUnits="userSpaceOnUse"><stop offset="0" stop-color="#fff" stop-opacity="0"/><stop offset="0.1" stop-color="#fff" stop-opacity="0.15"/><stop offset="0.29" stop-color="#fff" stop-opacity="0.41"/><stop offset="0.47" stop-color="#fff" stop-opacity="0.62"/><stop offset="0.63" stop-color="#fff" stop-opacity="0.78"/><stop offset="0.78" stop-color="#fff" stop-opacity="0.9"/><stop offset="0.91" stop-color="#fff" stop-opacity="0.97"/><stop offset="1" stop-color="#fff"/></linearGradient><linearGradient id="Degradado_sin_nombre_94" x1="423.89" y1="275.98" x2="497.52" y2="275.98" gradientUnits="userSpaceOnUse"><stop offset="0" stop-color="#fff"/><stop offset="1" stop-color="#d8d8db" stop-opacity="0"/></linearGradient><linearGradient id="Degradado_sin_nombre_105" x1="391.2" y1="234.98" x2="431.58" y2="229.62" gradientUnits="userSpaceOnUse"><stop offset="0" stop-color="#e5d8ae"/><stop offset="0.09" stop-color="#e6d9b0" stop-opacity="0.97"/><stop offset="0.23" stop-color="#e8dcb6" stop-opacity="0.88"/><stop offset="0.4" stop-color="#ebe1bf" stop-opacity="0.73"/><stop offset="0.6" stop-color="#f0e8cc" stop-opacity="0.53"/><stop offset="0.8" stop-color="#f6f1dc" stop-opacity="0.27"/><stop offset="1" stop-color="#fcfaed" stop-opacity="0"/></linearGradient><linearGradient id="Degradado_sin_nombre_106" x1="590.01" y1="261.4" x2="529.43" y2="213.13" gradientUnits="userSpaceOnUse"><stop offset="0" stop-color="#e5d8ae"/><stop offset="0.1" stop-color="#e6d9b0" stop-opacity="0.97"/><stop offset="0.23" stop-color="#e7dbb4" stop-opacity="0.9"/><stop offset="0.39" stop-color="#eae0bc" stop-opacity="0.78"/><stop offset="0.55" stop-color="#eee5c7" stop-opacity="0.61"/><stop offset="0.73" stop-color="#f3edd5" stop-opacity="0.39"/><stop offset="0.92" stop-color="#f9f6e5" stop-opacity="0.12"/><stop offset="1" stop-color="#fcfaed" stop-opacity="0"/></linearGradient><linearGradient id="Degradado_sin_nombre_16-3" x1="499.15" y1="279.88" x2="499.15" y2="352.95" xlink:href="#Degradado_sin_nombre_16"/></defs><rect class="cls-1" width="1000" height="362.35"/><path class="cls-2" d="M495.43,245.15a3.76,3.76,0,0,0-3.11,2.32c-1.15-6.38-4.8-11.08-9.17-11.08-3.29,0-6.18,2.64-7.91,6.65-2.3-11.74-9.18-20.27-17.31-20.27-5.26,0-10,3.6-13.29,9.31-4.83-18.51-16.27-31.53-29.62-31.53-16.72,0-30.44,20.41-31.92,46.44a3.54,3.54,0,0,0-2.85-1.84c-2.26,0-4.09,2.92-4.09,6.52H499.52C499.52,248.07,497.69,245.15,495.43,245.15Z" transform="translate(0.28 -48.87)"/><path class="cls-3" d="M932.66,158.6a1.37,1.37,0,1,1-1.34-1.06A1.22,1.22,0,0,1,932.66,158.6Z" transform="translate(0.28 -48.87)"/><path class="cls-3" d="M858.09,63.08a1.37,1.37,0,1,1-1.34-1A1.22,1.22,0,0,1,858.09,63.08Z" transform="translate(0.28 -48.87)"/><path class="cls-4" d="M888.15,170.13a2,2,0,1,1-1.94-1.53A1.78,1.78,0,0,1,888.15,170.13Z" transform="translate(0.28 -48.87)"/><ellipse class="cls-4" cx="848.15" cy="55.91" rx="1.94" ry="1.54"/><path class="cls-4" d="M952.25,56.26a2,2,0,1,1-1.94-1.54A1.78,1.78,0,0,1,952.25,56.26Z" transform="translate(0.28 -48.87)"/><path class="cls-4" d="M966.43,52.13a2,2,0,1,1-1.94-1.54A1.78,1.78,0,0,1,966.43,52.13Z" transform="translate(0.28 -48.87)"/><path class="cls-4" d="M624.26,92.28a2,2,0,1,1-1.94-1.54A1.78,1.78,0,0,1,624.26,92.28Z" transform="translate(0.28 -48.87)"/><path class="cls-5" d="M946.42,125.74a2,2,0,1,1-1.94-1.53A1.78,1.78,0,0,1,946.42,125.74Z" transform="translate(0.28 -48.87)"/><ellipse class="cls-5" cx="948.65" cy="154.04" rx="1.94" ry="1.54"/><path class="cls-5" d="M903.35,298.31a2,2,0,1,1-1.94-1.54A1.77,1.77,0,0,1,903.35,298.31Z" transform="translate(0.28 -48.87)"/><path class="cls-5" d="M974.53,243.62a2,2,0,1,1-1.94-1.54A1.78,1.78,0,0,1,974.53,243.62Z" transform="translate(0.28 -48.87)"/><path class="cls-5" d="M596.25,271.07a2,2,0,1,1-2-1.54A1.77,1.77,0,0,1,596.25,271.07Z" transform="translate(0.28 -48.87)"/><path class="cls-5" d="M697.27,234.53a2,2,0,1,1-1.95-1.54A1.78,1.78,0,0,1,697.27,234.53Z" transform="translate(0.28 -48.87)"/><path class="cls-5" d="M833,200.33a2,2,0,1,1-2-1.54A1.78,1.78,0,0,1,833,200.33Z" transform="translate(0.28 -48.87)"/><path class="cls-5" d="M750.22,170.29a2,2,0,1,1-1.94-1.54A1.77,1.77,0,0,1,750.22,170.29Z" transform="translate(0.28 -48.87)"/><path class="cls-5" d="M495.67,114.94a2,2,0,1,1-1.94-1.53A1.78,1.78,0,0,1,495.67,114.94Z" transform="translate(0.28 -48.87)"/><ellipse class="cls-5" cx="630.97" cy="10.98" rx="1.94" ry="1.54"/><path class="cls-5" d="M531.37,53.19a2,2,0,1,1-1.94-1.54A1.78,1.78,0,0,1,531.37,53.19Z" transform="translate(0.28 -48.87)"/><path class="cls-5" d="M598.19,226.67a2,2,0,1,1-1.94-1.54A1.78,1.78,0,0,1,598.19,226.67Z" transform="translate(0.28 -48.87)"/><ellipse class="cls-5" cx="822.3" cy="102.36" rx="1.94" ry="1.54"/><ellipse class="cls-5" cx="746.62" cy="1.54" rx="1.94" ry="1.54"/><ellipse class="cls-4" cx="906.61" cy="144.71" rx="1.94" ry="1.54"/><ellipse class="cls-4" cx="744.68" cy="216.65" rx="1.94" ry="1.54"/><path class="cls-4" d="M923.32,287.33a2,2,0,1,1-1.94-1.54A1.78,1.78,0,0,1,923.32,287.33Z" transform="translate(0.28 -48.87)"/><ellipse class="cls-4" cx="822.3" cy="187.49" rx="1.94" ry="1.54"/><ellipse class="cls-4" cx="726.42" cy="210.67" rx="1.94" ry="1.54"/><path class="cls-4" d="M600.43,101.15a2,2,0,1,1-1.94-1.54A1.78,1.78,0,0,1,600.43,101.15Z" transform="translate(0.28 -48.87)"/><path class="cls-4" d="M594.3,236.07a2,2,0,1,1-1.94-1.54A1.77,1.77,0,0,1,594.3,236.07Z" transform="translate(0.28 -48.87)"/><path class="cls-3" d="M248.29,273.73a1.37,1.37,0,1,1-1.33-1.06A1.22,1.22,0,0,1,248.29,273.73Z" transform="translate(0.28 -48.87)"/><path class="cls-3" d="M388.15,233.47a1.38,1.38,0,1,1-1.34-1.06A1.22,1.22,0,0,1,388.15,233.47Z" transform="translate(0.28 -48.87)"/><path class="cls-4" d="M203.78,285.26a2,2,0,1,1-1.94-1.54A1.77,1.77,0,0,1,203.78,285.26Z" transform="translate(0.28 -48.87)"/><path class="cls-4" d="M151.76,257.42a2,2,0,1,1-1.94-1.53A1.78,1.78,0,0,1,151.76,257.42Z" transform="translate(0.28 -48.87)"/><path class="cls-4" d="M206.23,183.61a2,2,0,1,1-1.94-1.54A1.78,1.78,0,0,1,206.23,183.61Z" transform="translate(0.28 -48.87)"/><path class="cls-5" d="M265.94,318a2,2,0,1,1-1.94-1.54A1.78,1.78,0,0,1,265.94,318Z" transform="translate(0.28 -48.87)"/><path class="cls-5" d="M72.93,286.79A2,2,0,1,1,71,285.26,1.77,1.77,0,0,1,72.93,286.79Z" transform="translate(0.28 -48.87)"/><ellipse class="cls-4" cx="222.24" cy="259.83" rx="1.94" ry="1.54"/><path class="cls-4" d="M222,225.13A2,2,0,1,1,220,223.6,1.78,1.78,0,0,1,222,225.13Z" transform="translate(0.28 -48.87)"/><path class="cls-4" d="M247.56,153.78a2,2,0,1,1-1.94-1.53A1.78,1.78,0,0,1,247.56,153.78Z" transform="translate(0.28 -48.87)"/><ellipse class="cls-5" cx="895.93" cy="94.51" rx="1.94" ry="1.54"/><path class="cls-5" d="M841.47,92.28a2,2,0,1,1-1.94-1.54A1.78,1.78,0,0,1,841.47,92.28Z" transform="translate(0.28 -48.87)"/><path class="cls-4" d="M39.76,180.54A2,2,0,1,1,37.81,179,1.78,1.78,0,0,1,39.76,180.54Z" transform="translate(0.28 -48.87)"/><ellipse class="cls-5" cx="138.73" cy="90.35" rx="1.94" ry="1.54"/><path class="cls-5" d="M144.27,216.38a2,2,0,1,1-1.94-1.53A1.78,1.78,0,0,1,144.27,216.38Z" transform="translate(0.28 -48.87)"/><path class="cls-4" d="M102.23,207.05a2,2,0,1,1-1.94-1.53A1.78,1.78,0,0,1,102.23,207.05Z" transform="translate(0.28 -48.87)"/><path class="cls-4" d="M102.23,106.32a2,2,0,1,1-1.94-1.54A1.77,1.77,0,0,1,102.23,106.32Z" transform="translate(0.28 -48.87)"/><path class="cls-4" d="M318.32,242.08a2,2,0,1,1-1.94-1.54A1.78,1.78,0,0,1,318.32,242.08Z" transform="translate(0.28 -48.87)"/><path class="cls-4" d="M797.09,225.13a2,2,0,1,1-1.94-1.53A1.78,1.78,0,0,1,797.09,225.13Z" transform="translate(0.28 -48.87)"/><path class="cls-4" d="M679.5,114.94a2,2,0,1,1-1.94-1.53A1.78,1.78,0,0,1,679.5,114.94Z" transform="translate(0.28 -48.87)"/><path class="cls-5" d="M380.48,274.85a2,2,0,1,1-1.94-1.54A1.78,1.78,0,0,1,380.48,274.85Z" transform="translate(0.28 -48.87)"/><ellipse class="cls-4" cx="336.78" cy="216.65" rx="1.94" ry="1.54"/><path class="cls-5" d="M295.82,107.85a2,2,0,1,1-1.95-1.53A1.78,1.78,0,0,1,295.82,107.85Z" transform="translate(0.28 -48.87)"/><path class="cls-5" d="M334.55,54.72a2,2,0,1,1-1.94-1.53A1.78,1.78,0,0,1,334.55,54.72Z" transform="translate(0.28 -48.87)"/><path class="cls-4" d="M253.77,98.53A2,2,0,1,1,251.83,97,1.78,1.78,0,0,1,253.77,98.53Z" transform="translate(0.28 -48.87)"/><ellipse class="cls-4" cx="468.21" cy="84.68" rx="1.94" ry="1.54"/><path class="cls-4" d="M392,107.85a2,2,0,1,1-1.94-1.53A1.78,1.78,0,0,1,392,107.85Z" transform="translate(0.28 -48.87)"/><path class="cls-4" d="M490,157a2,2,0,1,1-1.94-1.53A1.78,1.78,0,0,1,490,157Z" transform="translate(0.28 -48.87)"/><path class="cls-4" d="M477.74,104.59a2,2,0,1,1-1.94-1.54A1.78,1.78,0,0,1,477.74,104.59Z" transform="translate(0.28 -48.87)"/><path class="cls-5" d="M65.06,156.86a2,2,0,1,1-2-1.54A1.78,1.78,0,0,1,65.06,156.86Z" transform="translate(0.28 -48.87)"/><path class="cls-5" d="M30.13,63.08a1.78,1.78,0,0,1-1.94,1.54,1.58,1.58,0,1,1,0-3.07A1.77,1.77,0,0,1,30.13,63.08Z" transform="translate(0.28 -48.87)"/><path class="cls-3" d="M199.92,102.21a1.37,1.37,0,1,1-1.34-1.06A1.23,1.23,0,0,1,199.92,102.21Z" transform="translate(0.28 -48.87)"/><path class="cls-3" d="M119,52.13a1.37,1.37,0,1,1-1.34-1.06A1.23,1.23,0,0,1,119,52.13Z" transform="translate(0.28 -48.87)"/><ellipse class="cls-3" cx="43.1" cy="61.58" rx="1.34" ry="1.06"/><path class="cls-3" d="M133.44,175.17a1.37,1.37,0,1,1-1.33-1.06A1.22,1.22,0,0,1,133.44,175.17Z" transform="translate(0.28 -48.87)"/><ellipse class="cls-3" cx="65.07" cy="188.54" rx="1.34" ry="1.06"/><path class="cls-3" d="M300.75,159.45a1.37,1.37,0,1,1-1.34-1A1.22,1.22,0,0,1,300.75,159.45Z" transform="translate(0.28 -48.87)"/><path class="cls-3" d="M377.93,111.51a1.37,1.37,0,1,1-1.34-1.06A1.23,1.23,0,0,1,377.93,111.51Z" transform="translate(0.28 -48.87)"/><ellipse class="cls-3" cx="632.31" cy="209.61" rx="1.34" ry="1.06"/><ellipse class="cls-3" cx="884.55" cy="174.73" rx="1.34" ry="1.06"/><path class="cls-3" d="M799.29,288.87a1.37,1.37,0,1,1-1.34-1.06A1.22,1.22,0,0,1,799.29,288.87Z" transform="translate(0.28 -48.87)"/><ellipse class="cls-3" cx="465.67" cy="18.07" rx="1.34" ry="1.06"/><ellipse class="cls-3" cx="743.34" cy="79.95" rx="1.34" ry="1.06"/><path class="cls-3" d="M735.55,144.92a1.37,1.37,0,1,1-1.34-1.06A1.23,1.23,0,0,1,735.55,144.92Z" transform="translate(0.28 -48.87)"/><path class="cls-5" d="M213.68,69.35a2,2,0,1,1-1.94-1.54A1.78,1.78,0,0,1,213.68,69.35Z" transform="translate(0.28 -48.87)"/><ellipse class="cls-5" cx="163.19" cy="38.12" rx="1.94" ry="1.54"/><path class="cls-6" d="M-.28,398.07h1000V241.58c-.1.33-.2.65-.29,1C992,234.06,982.92,229,973.09,229a29.78,29.78,0,0,0-12.4,2.76,26.14,26.14,0,0,0-3.61-12.25c-2.44-3.89-5.65-5.83-8.85-5.82,0-.32,0-.64,0-.95-1-62.86-59.91-62.86-60.9,0,0,.31,0,.63,0,.95-3.21,0-6.41,1.93-8.85,5.82a26.14,26.14,0,0,0-3.61,12.25,29.81,29.81,0,0,0-12.4-2.76c-9.84,0-18.93,5-26.35,13.52a23.24,23.24,0,0,0-2.75-6.64c-4.88-7.77-12.79-7.77-17.67,0a20.44,20.44,0,0,0-1.19,2.22c-10.49-28.14-29.76-47-51.8-47a39,39,0,0,0-12.82,2.2c-4.72-45.48-29.51-80.17-59.4-80.17l-.74,0-.73,0c-29.9,0-54.69,34.69-59.4,80.17a39.08,39.08,0,0,0-12.82-2.2c-22,0-41.32,18.87-51.81,47a20.38,20.38,0,0,0-1.18-2.22c-4.88-7.77-12.79-7.77-17.67,0a23.26,23.26,0,0,0-2.76,6.64C535.94,234.06,526.85,229,517,229a29.81,29.81,0,0,0-12.4,2.76,26,26,0,0,0-3.6-12.25v0a1.4,1.4,0,0,0-2.56,0v0a26.14,26.14,0,0,0-3.61,12.25,29.81,29.81,0,0,0-12.4-2.76c-9.84,0-18.93,5-26.35,13.52a23.24,23.24,0,0,0-2.75-6.64c-4.88-7.77-12.79-7.77-17.67,0a20.44,20.44,0,0,0-1.19,2.22c-10.49-28.14-29.76-47-51.8-47a39,39,0,0,0-12.82,2.2c-4.72-45.48-29.51-80.17-59.4-80.17l-.74,0-.73,0c-29.9,0-54.69,34.69-59.4,80.17a39.09,39.09,0,0,0-12.83-2.2c-22,0-41.31,18.87-51.8,47a22.27,22.27,0,0,0-1.18-2.22c-4.88-7.77-12.79-7.77-17.67,0a23.26,23.26,0,0,0-2.76,6.64C155.91,234.06,146.82,229,137,229a29.81,29.81,0,0,0-12.4,2.76,26,26,0,0,0-3.6-12.25c-2.45-3.89-5.65-5.83-8.85-5.82,0-.32,0-.64,0-.95-1-62.86-59.91-62.86-60.91,0,0,.31,0,.63,0,.95-3.2,0-6.4,1.93-8.85,5.82a26,26,0,0,0-3.6,12.25A29.81,29.81,0,0,0,26.35,229c-9.84,0-18.93,5-26.35,13.52-.08-.33-.19-.65-.28-1Z" transform="translate(0.28 -48.87)"/><path class="cls-7" d="M-.28,404.52h1000V286.61c-.08-.09-.14-.19-.22-.27a13.3,13.3,0,0,0-19.48,0,14.63,14.63,0,0,0-3,4.84,47.87,47.87,0,0,0-29.05-9.86,47.29,47.29,0,0,0-13.67,2,14.74,14.74,0,0,0-4-8.93,13.41,13.41,0,0,0-9.76-4.25c0-.23,0-.46,0-.69-1.09-45.81-66-45.81-67.14,0,0,.23,0,.46,0,.69a13.37,13.37,0,0,0-9.75,4.25,14.75,14.75,0,0,0-4,8.93,47.24,47.24,0,0,0-13.67-2,47.87,47.87,0,0,0-29.05,9.86,14.47,14.47,0,0,0-3-4.84,13.3,13.3,0,0,0-19.48,0,14.19,14.19,0,0,0-1.3,1.62c-11.57-20.52-32.81-34.27-57.12-34.27a63.43,63.43,0,0,0-14.13,1.6c-5.2-33.14-32.53-58.43-65.49-58.43l-.81,0-.81,0c-33,0-60.29,25.29-65.49,58.43a63.36,63.36,0,0,0-14.13-1.6c-24.31,0-45.55,13.75-57.12,34.27a14.19,14.19,0,0,0-1.3-1.62,13.3,13.3,0,0,0-19.48,0,14.47,14.47,0,0,0-3,4.84,47.87,47.87,0,0,0-29.05-9.86,47.29,47.29,0,0,0-13.67,2,14.8,14.8,0,0,0-4-8.93l0,0a1.94,1.94,0,0,0-2.82,0v0a14.81,14.81,0,0,0-4,8.93,47.19,47.19,0,0,0-13.67-2,47.84,47.84,0,0,0-29,9.86,14.8,14.8,0,0,0-3-4.84,13.3,13.3,0,0,0-19.48,0,14.28,14.28,0,0,0-1.31,1.62c-11.57-20.52-32.81-34.27-57.11-34.27a63.45,63.45,0,0,0-14.14,1.6c-5.2-33.14-32.53-58.43-65.48-58.43l-.82,0-.81,0c-32.95,0-60.29,25.29-65.48,58.43a63.51,63.51,0,0,0-14.14-1.6c-24.3,0-45.54,13.75-57.11,34.27a15.47,15.47,0,0,0-1.31-1.62,13.3,13.3,0,0,0-19.48,0,14.63,14.63,0,0,0-3,4.84,47.84,47.84,0,0,0-29-9.86,47.31,47.31,0,0,0-13.68,2,14.74,14.74,0,0,0-4-8.93,13.37,13.37,0,0,0-8.78-4.2Z" transform="translate(0.28 -48.87)"/><path class="cls-8" d="M662.22,272c-1.77,0-3.33,1.29-4.39,3.29-1.63-9-6.78-15.67-13-15.67-4.64,0-8.74,3.73-11.18,9.41-3.25-16.61-13-28.66-24.46-28.66-7.44,0-14.11,5.08-18.79,13.15-6.82-26.16-23-44.56-41.87-44.56-23.63,0-43,28.84-45.12,65.65a5,5,0,0,0-4-2.61c-3.2,0-5.79,4.13-5.79,9.22H668C668,276.12,665.42,272,662.22,272Z" transform="translate(0.28 -48.87)"/><g id="Moon"><ellipse class="cls-9" cx="507.1" cy="177.8" rx="146.77" ry="140.49"/><ellipse class="cls-10" cx="507.1" cy="177.8" rx="143.32" ry="137.19"/><path class="cls-11" d="M363.5,226.67c0-75.77,64.16-137.19,143.32-137.19S650.14,150.9,650.14,226.67,363.5,302.44,363.5,226.67Z" transform="translate(0.28 -48.87)"/><path class="cls-12" d="M496.88,270.25a10.26,10.26,0,0,0-13-5.7,10,10,0,0,0-1.59.73,13.76,13.76,0,0,0-7.78-8.71,14.64,14.64,0,0,0-16,2.87A14.65,14.65,0,0,0,443,255.87a13.78,13.78,0,0,0-8.74,9.24.31.31,0,0,0-.1-.05,7.38,7.38,0,0,0-9.59,3.43,6.82,6.82,0,0,0,3.58,9.18,7.48,7.48,0,0,0,8.11-1.4,14.56,14.56,0,0,0,16.68,5.07,14.21,14.21,0,0,0,2.09-1,13,13,0,0,0,.55,7.72,14.38,14.38,0,0,0,18.27,8,13.59,13.59,0,0,0,9.2-13.69,10.48,10.48,0,0,0,7.91.34A9.58,9.58,0,0,0,496.88,270.25Z" transform="translate(0.28 -48.87)"/><path class="cls-13" d="M488.5,189c-1.31-7.4-8.64-12.39-16.37-11.14s-12.95,8.26-11.64,15.66,8.63,12.4,16.36,11.15A13.68,13.68,0,0,0,488.5,189Z" transform="translate(0.28 -48.87)"/><path class="cls-13" d="M470.88,170.69c-1.31-7.41-8.64-12.4-16.37-11.15a13.67,13.67,0,0,0-11.64,15.67c1.3,7.4,8.63,12.39,16.36,11.14S472.18,178.09,470.88,170.69Z" transform="translate(0.28 -48.87)"/><path class="cls-13" d="M485.3,165.93a14.62,14.62,0,0,0-19.81,3.2,13.23,13.23,0,0,0,3.34,19,14.62,14.62,0,0,0,19.81-3.2A13.23,13.23,0,0,0,485.3,165.93Z" transform="translate(0.28 -48.87)"/><path class="cls-13" d="M504.6,183.42a10.1,10.1,0,0,0-11.68-8,9.77,9.77,0,0,0-8.31,11.19,10.1,10.1,0,0,0,11.68,7.95A9.76,9.76,0,0,0,504.6,183.42Z" transform="translate(0.28 -48.87)"/><path class="cls-13" d="M444,167a7.45,7.45,0,0,0-10.1,1.63,6.74,6.74,0,0,0,1.71,9.66,7.44,7.44,0,0,0,10.09-1.63A6.73,6.73,0,0,0,444,167Z" transform="translate(0.28 -48.87)"/><path class="cls-14" d="M432.23,220.23a15.18,15.18,0,0,0-16.49-9.2,18.81,18.81,0,0,0-1.26-6.17c-3.47-8.89-13-13.92-22.43-12.41a6.19,6.19,0,0,0-3.68-4.59,6.56,6.56,0,0,0-8.54,3,6,6,0,0,0,1.27,6.88,18.92,18.92,0,0,0-1.93,25.71,10.39,10.39,0,0,0-7.9,13.7,10.77,10.77,0,0,0,9.66,6.7,18.65,18.65,0,0,0,1.22,8.21,20.08,20.08,0,0,0,13.9,12A10,10,0,0,0,393.63,275,10.93,10.93,0,0,0,407.5,281a10.18,10.18,0,0,0,6.33-13.27,10.38,10.38,0,0,0-3.9-4.84,19.2,19.2,0,0,0,10.74-23.43,15.43,15.43,0,0,0,2.71-.7A14.25,14.25,0,0,0,432.23,220.23Z" transform="translate(0.28 -48.87)"/><path class="cls-15" d="M638.93,224.38A20,20,0,0,0,626,212.61a25.1,25.1,0,0,0,3.91-13.4c0-14.41-12.2-26.08-27.24-26.08s-27.24,11.67-27.24,26.08a25,25,0,0,0,1.45,8.36,27.58,27.58,0,0,0-20.19,9.9,27.64,27.64,0,0,0-21.39-10c-15,0-27.24,11.68-27.24,26.08,0,13.79,11.2,25.06,25.37,26a24.25,24.25,0,0,0-2.63,15.68,21.16,21.16,0,0,0-7.47,1.22c-10.54,3.77-15.9,15-12,25.09S527,316.78,537.57,313a19.62,19.62,0,0,0,13.14-16.47,28.56,28.56,0,0,0,7,.89,27.34,27.34,0,0,0,24.51-14.75A27.48,27.48,0,0,0,605.3,295c15.05,0,27.24-11.67,27.24-26.07a25.5,25.5,0,0,0-8.29-18.72,20.76,20.76,0,0,0,2.72-.75C637.51,245.71,642.87,234.47,638.93,224.38ZM603.5,242.84l.08.11h-.12A.36.36,0,0,0,603.5,242.84Z" transform="translate(0.28 -48.87)"/></g><path class="cls-16" d="M586.18,345c-1.89,0-3.56,1.38-4.7,3.52-1.73-9.65-7.25-16.76-13.86-16.76-5,0-9.34,4-12,10.06-3.48-17.75-13.88-30.63-26.16-30.63-8,0-15.09,5.43-20.09,14.06-7.29-28-24.58-47.65-44.76-47.65-25.27,0-46,30.84-48.24,70.19a5.33,5.33,0,0,0-4.3-2.79c-3.41,0-6.18,4.42-6.18,9.86H592.36C592.36,349.37,589.59,345,586.18,345Z" transform="translate(0.28 -48.87)"/></svg>