<svg xmlns="http://www.w3.org/2000/svg" xmlns:xlink="http://www.w3.org/1999/xlink" viewBox="0 0 1191 412"><defs><style>.cls-1{isolation:isolate;}.cls-2{fill:url(#Áåçûìÿííûé_ãðàäèåíò_212);}.cls-10,.cls-19,.cls-20,.cls-3,.cls-30,.cls-31,.cls-37,.cls-38,.cls-39,.cls-40,.cls-41,.cls-42,.cls-43,.cls-46,.cls-47,.cls-48,.cls-6,.cls-9{mix-blend-mode:screen;}.cls-3{fill:url(#Áåçûìÿííûé_ãðàäèåíò_275);}.cls-4{fill:url(#Áåçûìÿííûé_ãðàäèåíò_80);}.cls-5{fill:url(#Áåçûìÿííûé_ãðàäèåíò_27);}.cls-19,.cls-20,.cls-30,.cls-37,.cls-6,.cls-9{opacity:0.2;}.cls-6{fill:url(#Áåçûìÿííûé_ãðàäèåíò_126);}.cls-7{fill:url(#Áåçûìÿííûé_ãðàäèåíò_72);}.cls-8{fill:url(#Áåçûìÿííûé_ãðàäèåíò_69);}.cls-9{fill:url(#Áåçûìÿííûé_ãðàäèåíò_126-2);}.cls-10{fill:url(#Áåçûìÿííûé_ãðàäèåíò_131);}.cls-11{fill:url(#Áåçûìÿííûé_ãðàäèåíò_128);}.cls-12{fill:url(#Áåçûìÿííûé_ãðàäèåíò_128-2);}.cls-13{fill:url(#Áåçûìÿííûé_ãðàäèåíò_128-3);}.cls-14{fill:url(#Áåçûìÿííûé_ãðàäèåíò_128-4);}.cls-15{fill:url(#Áåçûìÿííûé_ãðàäèåíò_128-5);}.cls-16{fill:url(#Áåçûìÿííûé_ãðàäèåíò_40);}.cls-17{fill:url(#Áåçûìÿííûé_ãðàäèåíò_128-6);}.cls-18{fill:url(#Áåçûìÿííûé_ãðàäèåíò_107);}.cls-19{fill:url(#Áåçûìÿííûé_ãðàäèåíò_126-3);}.cls-20{fill:url(#Áåçûìÿííûé_ãðàäèåíò_126-4);}.cls-21{fill:url(#Áåçûìÿííûé_ãðàäèåíò_52);}.cls-22{fill:url(#Áåçûìÿííûé_ãðàäèåíò_52-2);}.cls-23{fill:url(#Áåçûìÿííûé_ãðàäèåíò_76);}.cls-24{fill:url(#Áåçûìÿííûé_ãðàäèåíò_34);}.cls-25{fill:url(#Áåçûìÿííûé_ãðàäèåíò_101);}.cls-26{fill:url(#Áåçûìÿííûé_ãðàäèåíò_121);}.cls-27{fill:url(#Áåçûìÿííûé_ãðàäèåíò_118);}.cls-28{fill:url(#Áåçûìÿííûé_ãðàäèåíò_109);}.cls-29{fill:url(#Áåçûìÿííûé_ãðàäèåíò_27-2);}.cls-30{fill:url(#Áåçûìÿííûé_ãðàäèåíò_126-5);}.cls-31,.cls-39,.cls-42,.cls-45{opacity:0.5;}.cls-31{fill:url(#Áåçûìÿííûé_ãðàäèåíò_248);}.cls-32{fill:url(#Áåçûìÿííûé_ãðàäèåíò_118-2);}.cls-33{fill:url(#Áåçûìÿííûé_ãðàäèåíò_118-3);}.cls-34{fill:url(#Áåçûìÿííûé_ãðàäèåíò_109-2);}.cls-35{fill:url(#Áåçûìÿííûé_ãðàäèåíò_34-2);}.cls-36{fill:url(#Áåçûìÿííûé_ãðàäèåíò_27-3);}.cls-37{fill:url(#Áåçûìÿííûé_ãðàäèåíò_126-6);}.cls-38{opacity:0.82;fill:url(#Áåçûìÿííûé_ãðàäèåíò_248-2);}.cls-39{fill:url(#Áåçûìÿííûé_ãðàäèåíò_248-3);}.cls-40{fill:url(#Áåçûìÿííûé_ãðàäèåíò_284);}.cls-41{fill:url(#Áåçûìÿííûé_ãðàäèåíò_131-2);}.cls-42{fill:url(#Áåçûìÿííûé_ãðàäèåíò_131-3);}.cls-43{fill:url(#Áåçûìÿííûé_ãðàäèåíò_131-4);}.cls-44{fill:#ffff63;}.cls-45{mix-blend-mode:multiply;fill:url(#Áåçûìÿííûé_ãðàäèåíò_111);}.cls-46,.cls-47,.cls-48{opacity:0.45;}.cls-46{fill:url(#Áåçûìÿííûé_ãðàäèåíò_126-7);}.cls-47{fill:url(#Áåçûìÿííûé_ãðàäèåíò_138);}.cls-48{fill:url(#Áåçûìÿííûé_ãðàäèåíò_209);}.cls-49,.cls-50,.cls-51,.cls-52{mix-blend-mode:soft-light;}.cls-49{fill:url(#Áåçûìÿííûé_ãðàäèåíò_40-2);}.cls-50{fill:url(#Áåçûìÿííûé_ãðàäèåíò_40-3);}.cls-51{fill:url(#Áåçûìÿííûé_ãðàäèåíò_40-4);}.cls-52{fill:url(#Áåçûìÿííûé_ãðàäèåíò_144);}.cls-53{fill:#ffffae;}</style><linearGradient id="Áåçûìÿííûé_ãðàäèåíò_212" x1="595.41" y1="328.31" x2="595.41" gradientUnits="userSpaceOnUse"><stop offset="0.19" stop-color="#ffa65b"/><stop offset="0.49" stop-color="#ff6a65"/><stop offset="1" stop-color="#7e90fc"/></linearGradient><radialGradient id="Áåçûìÿííûé_ãðàäèåíò_275" cx="494.74" cy="110.46" r="30.31" gradientTransform="matrix(-2.71, 3.35, -4.09, -2.22, 2461.59, -1202.14)" gradientUnits="userSpaceOnUse"><stop offset="0" stop-color="#ff3600"/><stop offset="1"/></radialGradient><linearGradient id="Áåçûìÿííûé_ãðàäèåíò_80" x1="790.36" y1="272.25" x2="1146.9" y2="-48.78" gradientUnits="userSpaceOnUse"><stop offset="0" stop-color="#ffe286"/><stop offset="0.53" stop-color="#fc6a7c"/><stop offset="0.99" stop-color="#cd669c"/></linearGradient><linearGradient id="Áåçûìÿííûé_ãðàäèåíò_27" x1="977.44" y1="166.44" x2="977.44" y2="2.4" gradientUnits="userSpaceOnUse"><stop offset="0" stop-color="#fc897c"/><stop offset="1" stop-color="#a64390"/></linearGradient><linearGradient id="Áåçûìÿííûé_ãðàäèåíò_126" x1="1009.11" y1="162.11" x2="1009.11" y2="2.4" gradientUnits="userSpaceOnUse"><stop offset="0" stop-color="#ff8d63"/><stop offset="1"/></linearGradient><linearGradient id="Áåçûìÿííûé_ãðàäèåíò_72" x1="595.41" y1="308.27" x2="595.41" y2="217.6" gradientUnits="userSpaceOnUse"><stop offset="0.01" stop-color="#ff9d8b"/><stop offset="1" stop-color="#ffce61"/></linearGradient><linearGradient id="Áåçûìÿííûé_ãðàäèåíò_69" x1="595.41" y1="308.24" x2="595.41" y2="249.58" gradientUnits="userSpaceOnUse"><stop offset="0.01" stop-color="#ff9d8b"/><stop offset="1" stop-color="#ffa661"/></linearGradient><linearGradient id="Áåçûìÿííûé_ãðàäèåíò_126-2" x1="830.64" y1="277.34" x2="1190.83" y2="277.34" xlink:href="#Áåçûìÿííûé_ãðàäèåíò_126"/><linearGradient id="Áåçûìÿííûé_ãðàäèåíò_131" x1="366.78" y1="315.96" x2="366.78" y2="257.9" gradientUnits="userSpaceOnUse"><stop offset="0"/><stop offset="1" stop-color="#ffcf00"/></linearGradient><linearGradient id="Áåçûìÿííûé_ãðàäèåíò_128" x1="1143.83" y1="148.59" x2="1143.83" y2="128.57" gradientUnits="userSpaceOnUse"><stop offset="0" stop-color="#ffe286"/><stop offset="1" stop-color="#ffd981"/></linearGradient><linearGradient id="Áåçûìÿííûé_ãðàäèåíò_128-2" x1="938.31" y1="184.23" x2="938.31" y2="169.49" xlink:href="#Áåçûìÿííûé_ãðàäèåíò_128"/><linearGradient id="Áåçûìÿííûé_ãðàäèåíò_128-3" x1="1043.53" y1="207" x2="1043.53" y2="151.85" xlink:href="#Áåçûìÿííûé_ãðàäèåíò_128"/><linearGradient id="Áåçûìÿííûé_ãðàäèåíò_128-4" x1="796.42" y1="234.78" x2="796.42" y2="185.86" xlink:href="#Áåçûìÿííûé_ãðàäèåíò_128"/><linearGradient id="Áåçûìÿííûé_ãðàäèåíò_128-5" x1="533.6" y1="227.11" x2="533.6" y2="182.34" xlink:href="#Áåçûìÿííûé_ãðàäèåíò_128"/><linearGradient id="Áåçûìÿííûé_ãðàäèåíò_40" x1="595.41" y1="276.74" x2="595.41" y2="62.37" gradientUnits="userSpaceOnUse"><stop offset="0" stop-color="#ffe286"/><stop offset="0.99" stop-color="#fa8374"/></linearGradient><linearGradient id="Áåçûìÿííûé_ãðàäèåíò_128-6" x1="524.73" y1="186.03" x2="524.73" y2="170.47" xlink:href="#Áåçûìÿííûé_ãðàäèåíò_128"/><linearGradient id="Áåçûìÿííûé_ãðàäèåíò_107" x1="595.41" y1="276.53" x2="595.41" y2="95.2" gradientUnits="userSpaceOnUse"><stop offset="0" stop-color="#ffae75"/><stop offset="0.99" stop-color="#e37f89"/></linearGradient><linearGradient id="Áåçûìÿííûé_ãðàäèåíò_126-3" x1="486.41" y1="269.93" x2="486.41" y2="220.55" xlink:href="#Áåçûìÿííûé_ãðàäèåíò_126"/><linearGradient id="Áåçûìÿííûé_ãðàäèåíò_126-4" x1="862.8" y1="341.02" x2="862.8" y2="304.35" gradientTransform="translate(-35.99 149.7) rotate(-14.29)" xlink:href="#Áåçûìÿííûé_ãðàäèåíò_126"/><linearGradient id="Áåçûìÿííûé_ãðàäèåíò_52" x1="747.02" y1="297.13" x2="747.02" y2="296.66" gradientUnits="userSpaceOnUse"><stop offset="0" stop-color="#ffae86"/><stop offset="0.99" stop-color="#cc7f9a"/></linearGradient><linearGradient id="Áåçûìÿííûé_ãðàäèåíò_52-2" x1="921.43" y1="299.52" x2="921.43" y2="298.8" xlink:href="#Áåçûìÿííûé_ãðàäèåíò_52"/><linearGradient id="Áåçûìÿííûé_ãðàäèåíò_76" x1="462.61" y1="41.96" x2="548.34" y2="-35.23" gradientUnits="userSpaceOnUse"><stop offset="0" stop-color="#fc6a7c"/><stop offset="0.99" stop-color="#a45e9c"/></linearGradient><linearGradient id="Áåçûìÿííûé_ãðàäèåíò_34" x1="455.45" y1="16.02" x2="580.07" y2="16.02" gradientUnits="userSpaceOnUse"><stop offset="0" stop-color="#bf606a"/><stop offset="1" stop-color="#a64390"/></linearGradient><linearGradient id="Áåçûìÿííûé_ãðàäèåíò_101" x1="595.41" y1="411.68" x2="595.41" y2="315.96" gradientUnits="userSpaceOnUse"><stop offset="0.02" stop-color="#6f6ab8"/><stop offset="0.67" stop-color="#ff6a65"/><stop offset="1" stop-color="#ffb354"/></linearGradient><linearGradient id="Áåçûìÿííûé_ãðàäèåíò_121" x1="635.09" y1="111.5" x2="635.09" y2="82.26" gradientUnits="userSpaceOnUse"><stop offset="0" stop-color="#ffe286"/><stop offset="1" stop-color="#ffc581"/></linearGradient><linearGradient id="Áåçûìÿííûé_ãðàäèåíò_118" x1="652.08" y1="74.65" x2="652.08" gradientUnits="userSpaceOnUse"><stop offset="0" stop-color="#ffc970"/><stop offset="0.99" stop-color="#ff908b"/></linearGradient><linearGradient id="Áåçûìÿííûé_ãðàäèåíò_109" x1="741.01" y1="242.6" x2="907.14" y2="-98.01" gradientUnits="userSpaceOnUse"><stop offset="0" stop-color="#ffe286"/><stop offset="0.53" stop-color="#fc6a7c"/></linearGradient><linearGradient id="Áåçûìÿííûé_ãðàäèåíò_27-2" x1="830.64" y1="149.25" x2="830.64" y2="0" xlink:href="#Áåçûìÿííûé_ãðàäèåíò_27"/><linearGradient id="Áåçûìÿííûé_ãðàäèåíò_126-5" x1="802.39" y1="143.6" x2="802.39" y2="0.26" xlink:href="#Áåçûìÿííûé_ãðàäèåíò_126"/><radialGradient id="Áåçûìÿííûé_ãðàäèåíò_248" cx="298.7" cy="-67.64" r="21.8" gradientTransform="matrix(3.75, -0.16, 0.56, 1.1, -255.35, 184.01)" gradientUnits="userSpaceOnUse"><stop offset="0" stop-color="#ff1f00"/><stop offset="1"/></radialGradient><linearGradient id="Áåçûìÿííûé_ãðàäèåíò_118-2" x1="276.15" y1="79.25" x2="276.15" y2="20.11" xlink:href="#Áåçûìÿííûé_ãðàäèåíò_118"/><linearGradient id="Áåçûìÿííûé_ãðàäèåíò_118-3" x1="417.14" y1="128.39" x2="417.14" y2="51.22" xlink:href="#Áåçûìÿííûé_ãðàäèåíò_118"/><linearGradient id="Áåçûìÿííûé_ãðàäèåíò_109-2" x1="246.82" y1="174.11" x2="246.82" y2="0" xlink:href="#Áåçûìÿííûé_ãðàäèåíò_109"/><linearGradient id="Áåçûìÿííûé_ãðàäèåíò_34-2" x1="273.66" y1="39.42" x2="273.66" y2="0" xlink:href="#Áåçûìÿííûé_ãðàäèåíò_34"/><linearGradient id="Áåçûìÿííûé_ãðàäèåíò_27-3" x1="246.53" y1="174.12" x2="246.53" y2="0" xlink:href="#Áåçûìÿííûé_ãðàäèåíò_27"/><linearGradient id="Áåçûìÿííûé_ãðàäèåíò_126-6" x1="224.01" y1="140.2" x2="224.01" y2="0" xlink:href="#Áåçûìÿííûé_ãðàäèåíò_126"/><radialGradient id="Áåçûìÿííûé_ãðàäèåíò_248-2" cx="194.35" cy="109" r="27.18" gradientTransform="matrix(-0.1, 3.95, -1.06, -0.37, 477.27, -615.87)" xlink:href="#Áåçûìÿííûé_ãðàäèåíò_248"/><radialGradient id="Áåçûìÿííûé_ãðàäèåíò_248-3" cx="137.35" cy="125.03" r="27.18" gradientTransform="matrix(-0.1, 3.95, -1.06, -0.37, 259.07, -414.7)" xlink:href="#Áåçûìÿííûé_ãðàäèåíò_248"/><radialGradient id="Áåçûìÿííûé_ãðàäèåíò_284" cx="496.44" cy="183.13" r="42.56" gradientTransform="matrix(-1.64, 1.72, -2.47, -1.14, 1716.8, -466.94)" gradientUnits="userSpaceOnUse"><stop offset="0" stop-color="#ffcf00"/><stop offset="1"/></radialGradient><linearGradient id="Áåçûìÿííûé_ãðàäèåíò_131-2" x1="899.1" y1="315.45" x2="899.1" y2="266.62" xlink:href="#Áåçûìÿííûé_ãðàäèåíò_131"/><linearGradient id="Áåçûìÿííûé_ãðàäèåíò_131-3" x1="709.02" y1="315.45" x2="709.02" y2="269.65" xlink:href="#Áåçûìÿííûé_ãðàäèåíò_131"/><linearGradient id="Áåçûìÿííûé_ãðàäèåíò_131-4" x1="614.92" y1="316.65" x2="614.92" y2="276.17" xlink:href="#Áåçûìÿííûé_ãðàäèåíò_131"/><linearGradient id="Áåçûìÿííûé_ãðàäèåíò_111" y1="387.75" x2="1190.83" y2="387.75" gradientUnits="userSpaceOnUse"><stop offset="0" stop-color="#b67ae7"/><stop offset="1" stop-color="#ffebc4"/></linearGradient><linearGradient id="Áåçûìÿííûé_ãðàäèåíò_126-7" x1="312.17" y1="342.77" x2="1191" y2="342.77" xlink:href="#Áåçûìÿííûé_ãðàäèåíò_126"/><linearGradient id="Áåçûìÿííûé_ãðàäèåíò_138" y1="357.06" x2="941.87" y2="357.06" gradientUnits="userSpaceOnUse"><stop offset="0"/><stop offset="1" stop-color="#ff8d63"/></linearGradient><linearGradient id="Áåçûìÿííûé_ãðàäèåíò_209" x1="0" y1="405.24" x2="941.87" y2="405.24" xlink:href="#Áåçûìÿííûé_ãðàäèåíò_126"/><linearGradient id="Áåçûìÿííûé_ãðàäèåíò_40-2" x1="228.21" y1="363.82" x2="228.21" y2="315.45" xlink:href="#Áåçûìÿííûé_ãðàäèåíò_40"/><linearGradient id="Áåçûìÿííûé_ãðàäèåíò_40-3" x1="956.17" y1="339.93" x2="956.17" y2="317.46" xlink:href="#Áåçûìÿííûé_ãðàäèåíò_40"/><linearGradient id="Áåçûìÿííûé_ãðàäèåíò_40-4" x1="984.06" y1="364.19" x2="984.06" y2="358.26" xlink:href="#Áåçûìÿííûé_ãðàäèåíò_40"/><radialGradient id="Áåçûìÿííûé_ãðàäèåíò_144" cx="411.43" cy="309.59" r="172.38" gradientTransform="translate(-105.47 0) scale(1.7 1.03)" gradientUnits="userSpaceOnUse"><stop offset="0" stop-color="#ffffb5"/><stop offset="0.99" stop-color="#fa8374"/></radialGradient></defs><g class="cls-1"><g id="sunset"><rect class="cls-2" width="1190.83" height="328.31"/><ellipse class="cls-3" cx="669.71" cy="210.32" rx="148.61" ry="121.86"/><path class="cls-4" d="M1144.89,0s-42,17.06-46.66,22.31c0,0-4.56,9-3.23,14.87a11.74,11.74,0,0,0-6.45.94s-2.11-2.42-10.34,0c0,0,5.22-7.67-5-8.68s-23,4.31-23,4.31-8.35-3.37-22.7-.74-9,12.92-9,12.92a116.49,116.49,0,0,0-18.68,8.68V52s11-9.9-5.68-9.29-16.68,13.12-15,15.55,6.67,0,6.67,0-3.67,4-2.34,6.86l-2.67,4.64s-1.66-3.23-5.67,0,0,8.89,0,8.89l-4.34,1.81s-.66-4.24-9-3.63-6.67,6.86-6.67,6.86-8.68-9.69-37,0-25.36,28.47-25.36,28.47-4.34-2.22-9,2c0,0-12.35-5-29.37,0s-22,11.3-22,11.3-17.35-9.69-50,1.82-22,23.42-18.36,25.24,9.35,1.57,9.35,1.57l-11,2.26s-8.68-9.17-38.38-2.26c0,0,.33-3.79-11.68-1.37s-21.36,9.29-19,11.51,15,0,15,0,16.36,3.79,29,1c0,0,15.68-2.8,26-4.62,0,0-3,6.26,11.68,5.66S820.25,161,820.25,161s18.69,7,46,4.5,28.7-5.92,28.7-5.92,61.4-1,75.75-14.73l24.7-5.05s1.67,3.23,24,1.41,26.37-8.28,25.7-10.5-15.68-2.42-15.68-2.42,4.67-3.84,3.67-5.65-7.35-1.42-7.35-1.42l39-10.49s-5.67,5,0,7.06c0,0-7.34,4.24-2.67,6.46s28-1.81,28-1.81-4,3,10,4.44S1191,109.43,1191,109.43L1190.83,0Z" transform="translate(0 0)"/><path class="cls-5" d="M1191,2.4s-97.34,18.29-94.56,37.68l-34.25,14.13s7-13.93-10.68-10.7-27.36,11.71-24,14.13,18,1.61,18,1.61l-13.34,4.24s-1.23-1.61-6.9-1.34a30.41,30.41,0,0,0-9.9,2.15s-1.34-.94-9.46,1.35-13.68,6.66-12.68,8.61c0,0-20.13,4.71-26,12s2.12,8.41,2.12,8.41l-17.13,5.72s3.11-4.1-11.68-2.89-29.59,7.13-33.37,13.79,7,7.14,7,7.14-74.86,5.65-63.77,14.1a181.41,181.41,0,0,0-30.94,1.14c-16.58,2.09-21,7.24-21.36,9.39s14.4,1.14,14.4,1.14S779,153.4,772,156.7s-8.52,6.07-8,7.48,5.2,2.7,17.55,2.12S820.25,161,820.25,161s19.24,7.46,48.17,4.5S895,159.59,895,159.59s26.51.2,50.24-4.91,25.51-9.82,25.51-9.82l23.9-4.89s7.14,4.68,27.49,1.52,23.92-9,23.92-9-5-2.82-15.57-3.16a120.37,120.37,0,0,0-18.69.81s17.54-1.73,20.39-4.57.74-5.26-7-5.93l39.71-8.88s2.89-.61,10.23.27c0,0-8.9,1.81-9.12,5.31,0,0-6.3,5.07-5,7s11.72,2.38,29.29-.85c0,0,5.67-2.16,19.13-2.43,0,0-16.1,1.47-18.73,4.67,0,0,3.49,2.87,18.18,2.67s82.2-17.93,82.2-17.93V2.4Z" transform="translate(0 0)"/><path class="cls-6" d="M1191,2.4s-70.45,18.38-82.92,28S1132.42,41,1132.42,41s-98.1,27-120.78,39,38.56,4.49,38.56,4.49L998.43,100s-21-11.79-61.65,15c0,0-74.85,9.95-80.52,15.09s25,6.86,25,6.86-53.55,15.1-54,20.59,39.81,6.86,80.63,0S964,140,964,137.91s-13.61-.68-13.61-.68,102.07-25.73,138.37-34c0,0-10.78,7.89-5.11,12S1191,95.2,1191,95.2Z" transform="translate(0 0)"/><path class="cls-7" d="M1106.33,224.07c-24.38,9.22-8.51,9.22-8.51,9.22s-42.59,5.08-59.57,11.63,0,7.92,0,7.92L1002,259.7s4.54-5.49-17.58-6.52-124.76,6.87-141.77,12.18,0,7,0,7-21.27,3.11-23.24,4.34,4.52,2,4.52,2l-41.39.86s5.11-1.89,4.26-4.21-36.44-5-67.06-.51c0,0,2.28-1.8-2.83-2.06s-43.11,7.38-43.11,7.38L635,279.51a7.48,7.48,0,0,0-6.52-6.77c-6.24-1-45.8.43-45.8.43l-135.1-2.06s-65.21-5.84-101.36-2.92c-30.84,2.49-36.71,8.16-36.88,10.4-17.93-.66-51.33-3.06-68.49-1.88a78.89,78.89,0,0,0,10-1.6c2.13-.56,3.81-1.26,4-2.12,0,0,4.93-.08,11.86-.31,14.93-.49,39.14-1.7,42.73-4.4,5.24-3.95-12.06-6.43-12.06-6.43l41.4-1.12,2.69-4.12L0,257.81v36.8H396.38s-59.12,1.54-65.93,2.83,17,2.57,17,2.57L53.16,302.33,0,304.38v2.83H124.61l-.15,0c-.95.1-6,.66-6,1s221.23-2.55,284.13-3.39l4.1-.05,2.43,0h1.16l2,0h1.09l3,0h.34l1.92,0h.44s-5.9,1-6.82,1.78a1,1,0,0,0-.12.16c-.22.76,361.08,1,364.77-.22s-9.94-1.89-9.94-1.89l3.66,0,3.51,0,2.07,0c46.12-.44,249.65-2.37,253-2.83a73.61,73.61,0,0,0,7.17-1.72l154.45-.34v-81.3S1130.72,214.84,1106.33,224.07ZM350.07,277.38c-1.36,0-8.35.21-15.79.49-.9-.69-4.11-1.13-4.11-1.13l20.14.63Zm205.08,20.34H457.91s20.68-.62,25.51-3.37c0,0,33.74,1.72,40.83,0,6.18-1.5-8.15-2.08-11.89-2.2l91.47,2.19C598.59,294.29,562.77,294,555.15,297.72Zm342.7,1.8h-.49l-37.41,1L821,300.4l.82-.09h.07c1.56-.18,4.76-.59,5.07-1.07.44-.65-72.3-.77-81.22-.26s4,1.42,4,1.42l-44.46.64.31,0,.32,0,.36,0c5.22-.45,29.65-2.54,38.74-3.74l.66-.09a17.82,17.82,0,0,0,2.59-.47c3-1-5.11-1.28-5.11-1.28l25.93-1s-6.81,1.15-6.59,1.93a14.69,14.69,0,0,0,3.12.23c15.31.48,81.94.29,81.94.29l66.74,2h.12l4.58.14Z" transform="translate(0 0)"/><path class="cls-8" d="M1025.81,260.9c-39.13,4.63-5.1,5.92-5.1,5.92S857,274.06,847.19,276.74s85.91,2.17,85.91,2.17L782.61,290c1.24-.16,21.25-2.9,22.9-5.39s-53.16-5.66-92.29-4.12-32.32,5.41-32.32,5.41l-117.38-2.57s21.67-4,22.11-6.55-99.86,3.71-99.86,3.71-85.43-5.66-135.46-3.08h-.24c-6.06.31-11.21.62-15.58.9-8.87.6-14.55,1.16-18.14,1.65-9.17,1.25-4.61,2.07-4.61,2.07l-122.48-1.8s38.8-2.68,61.58-5.09c8.37-.89,14.56-1.75,15.91-2.43,5-2.52-50.27-13.12-118.75-9.74s-53.58,6.83-53.58,6.83H0v24.84H396.38s-59.12,1.54-65.93,2.83,17,2.57,17,2.57L53.16,302.33,0,304.38v2.83H124.61l-.15,0-6,1,284.13-3.39,4.1-.05,2.43,0h1.16l2,0h1.09l3,0c-1.48.17-3.22.6-4.12,1.75a1,1,0,0,0-.12.16c-1.7,2.43,364.5,2,368.73-.14s-13.9-2-13.9-2l3.66,0,3.51,0,2.07,0,262.39-2.05,152.26-2.84V249.58S1064.94,256.27,1025.81,260.9ZM483.42,294.35s33.74,1.72,40.83,0c6.18-1.5-8.15-2.08-11.89-2.2l91.47,2.19c-5.24,0-41.06-.31-48.68,3.38H457.91S478.59,297.1,483.42,294.35ZM745.76,299c-8.94.51,4,1.42,4,1.42l-44.46.64.31,0,.32,0,.36,0c5.12-.41,28.9-2.33,38.74-3.74l.66-.09a17.82,17.82,0,0,0,2.59-.47c6.58-1.54-5.11-1.28-5.11-1.28l25.93-1s-6.81,1.15-6.59,1.93a14.69,14.69,0,0,0,3.12.23c-.79.59-1.24,1.09-.7,1.18,1,.19,98.26.81,149.38,1.11h.12l4.58.14-21.2.58h-.49l-75.45.79c1.56-.18,4.76-.59,5.07-1.07C827.42,298.59,754.68,298.47,745.76,299Z" transform="translate(0 0)"/><path class="cls-9" d="M1190.83,262.53s-205.62,12.78-213.39,16.38,68.79,6.8,68.79,6.8l-215.59,6.44h360.19Z" transform="translate(0 0)"/><polygon class="cls-10" points="611.98 257.9 82.69 315.96 486.41 315.96 650.86 261.36 611.98 257.9"/><path class="cls-11" d="M1096.84,148.59s13.17-4.6,24.66-7.85c0,0-12.33.26-3.82-7.2s51.88-6.45,73.15,2.56Z" transform="translate(0 0)"/><path class="cls-12" d="M974.78,175.48s-14.89-6.7-44.66-5.92-28.27,9.86-28.27,9.86L914,184.23Z" transform="translate(0 0)"/><path class="cls-13" d="M1072,153.74s-21.06-4.25-48.7,0-8.48,10.42-8.48,10.42-7.71,6.47-4.49,8.1,32.53-2.7,32.53-2.7h21.27s-25.09,4.37-37,8.49,1.7,4.29,1.7,4.29-28.5,1.11-48.48,7.55S962.66,207,962.66,207L1043,190.23l65.08-20.67,16.4-15.44-40.4,12.18-28.5-2.14-4.68-4.89Z" transform="translate(0 0)"/><path class="cls-14" d="M746.39,211.88s-6.78-7.07,1.93-17.36,50.1-6.18,50.1-6.18,4.54-2.21,18.71-2.48S849,192.44,849,192.44l-39.25,28.11-44,14.23-15.31-3.73s1.49-3.26,9.43-7.37,19.85-6.08,19.85-6.08Z" transform="translate(0 0)"/><path class="cls-15" d="M616.38,222.42s-8.49-8.71-29.47-12c0,0,2.81-9-11.64-15.9a64.2,64.2,0,0,0-28.89-5.83s-56.44-12.16-95.57-2.83L533.6,217.6l61.81,9.51Z" transform="translate(0 0)"/><path class="cls-16" d="M1190.83,130.71s-39.56,2.06-53.17,5.4-11.9,7.72-11.9,7.72a122.39,122.39,0,0,0-28.92,4.76c-16.38,4.63-14.68,10.93-13.83,12s8.72,1.16,8.72,1.16l-21.26,2.45s3-1.68,3-3-8.72-.9-8.72-.9,7.23-4.76,7.23-6.56-44.45,2.7-54,8.1,3.83,3.86,3.83,3.86-12.12,3.47-11.48,6.56,21.9,3,27.22,1.93,2.76-2.7,2.76-2.7l14.46.39s-21.48,7.71-12.12,10c0,0-27.86,1.93-52.52,8.75S961.38,205.07,962.66,207,975,209.7,975,209.7l-44,4.37s14.25-8,7-15.18-33-4.76-33-4.76,4.25-1.93,2.76-4.76c0,0,34.88,3.6,49.76-1.41,0,0,6-2.45,6.59-5,0,0,11.91-4.25,10.64-7.46s-50-4.51-65.5-.39.64,3.35.64,3.35-11.27.12-13,3.86,9.57,5.53,9.57,5.53-19.78-.77-29.35,3.86,5.53,4.89,5.53,4.89S820,185.86,776.59,193.49c-42.4,7.45-30.2,18.39-30.2,18.39s-9.78,2.71-10.2,3.86S797,220.89,797,220.89s-17.86,1.16-17.86,7.46c0,0-23.39.26-28.71,2.7s15.31,3.73,15.31,3.73S739.59,237,729.59,246l-69,2.4s7.08-6-46.93-10.64c0,0,17.9-15.81-13.57-22.49S555.86,213,555.86,213s12.33-5.4,13.19-10-47.73-28.44-118.24-17.15c-17.53,2.81-5.53,9.69-5.53,9.69l-33.17-6s4.68-.68,4.25-4S347.89,169,347.89,169s.85-11.32-69.75-11.32c0,0,8.51.52,11.49-1.54s-31.9-8.75-31.9-8.75,27.22,1.55,31.47-1-13.18-11.06-28.49-8.23c0,0-12.76-2.06-16.59,0s7.65,8,7.65,8S223.42,132.25,199,136c-17.6,2.73,0,14.5,0,14.5l-37.85-10.29s41.25-30.92-24.24-50S0,62.37,0,62.37V175.73s83.36,20.76,97.39,17.07c0,0,40.83,3.94,49.34,0s5.53-7.55,5.53-7.55l57.84,7.55s-10.64,3.78-.43,7.89,110.15,15.18,184.58,18c0,0-3.4,2.06-3.4,4.63s21.69,4.12,21.69,4.12-42.53-4.89-69.75.52-12.76,7.2-12.76,7.2-14,1-19.56,4.12,5.1,5.66,5.1,5.66L293,244.18s8.5-1,8.5-4.12S285,235.94,285,235.94s22.54.26,25.52-2.31-35.3-9-35.3-9,11.05,1,13.61-3.6-38.71-11.06-52.74-7,1.7,5.41,1.7,5.41a221.54,221.54,0,0,0-29.63-3s-6.52-5.14-21.26-6.17-19,3.09-19,3.09l-8.22-.86s7.94-.34,8.79-4.63-23.25-10.64-59.83-11.32c0,0-70.6-13.73-108.59-14.41v75.64s182.88,2.06,214.92,0l-12.76-1.54,131,2.46s-7.09,2.34-4,3.54,95.55,5.66,109.72,3.78l-5.1-1.89,33.46,3.43s-5.39-1.2-11.06,3.77c0,0,32,3.09,79.67,3.43s65.89-1.2,70.52-2.23,0-2.23,0-2.23l8.87,1.55s-5.1.78-14.74,3,31.19,2.18,42.24,1.5-8.22-2.75-8.22-2.75,11.91-.85,14.46-2.4-19.56-4.46-19.56-4.46l106,.86s-13.05.34-14.75,2.06,66.07,1.71,73.44.34-2.55-2.23-2.55-2.23l51-2.4s81.09-6,110.58-8.75,17-6.34,17-6.34,74-4.81,99.8-9.1l120.79-10.8Z" transform="translate(0 0)"/><path class="cls-17" d="M501.46,173.82s-1.28,3.35,4.25,4.89,20.63,3.86,20.63,3.86-6.68.9-2.17,2.44,15.56,1.16,14.71,0a6.58,6.58,0,0,0-2.34-1.8s9.78,1,10.42.13-1.49-1.8-1.49-1.8,4.71-1.29,1.61-2.57-11.6-2.19-11.6-2.19-2.36-4.63-10.75-6.05a17.2,17.2,0,0,0-13.7,3.35A30.91,30.91,0,0,0,501.46,173.82Z" transform="translate(0 0)"/><path class="cls-18" d="M1190.83,157.72s-39.56.78-58.27,6.44,0,5.91,0,5.91l-38.7,11.58a147.45,147.45,0,0,0-34.45,2.58c-17,3.6,4.25,2.83,4.25,2.83s-42.1,4.63-65.07,16.46,6.81,11.32,6.81,11.32l-91,14.67s3.87-1.14,4.28-6.23-26.39,0-26.39,0,41.35-8.08,41.31-10.92c-.15-9.17-100.85-4.36-120,5.24s35.72,9.34,35.72,9.34-30.62,1.54-33.17,5.4,20.42,3.34,20.42,3.34-64.65-1-84.21,7.47,40.53,7.72,40.53,7.72-31.78,2-44.45,4.63,6.89,3.08,6.89,3.08l-117.38,2.58s7.66-4.89,0-8.75-48.06-4.89-48.06-4.89,21.27-3.34,23.4-4.89S552,238.26,552,238.26s51.72-1,54.36-3.35S552,222.82,552,222.82s10.64-.67,7.23-5.22-62.52-15.88-105-15c0,0,2.12-1.93,1.91-3.21s-45.29-10.17-55.93-9.52-2.76,5.14-2.76,5.14-34-17.11-81.45-22.51-41,.51-41,.51-50.82-16.46-67.19-18,0,3.48,0,3.48-28.29-13.38-54.44-13.13l-14.46-4.89s7.65-1.54,2.34-5.66-52.1-19.16-61.46-19.94-4.25,4.38-4.25,4.38L0,95.2v80.53s50.76,12.9,85.16,17.07,61.57,2.86,66.25,1,1.27-10.29,1.27-10.29l57.42,9.29s-6,.93-3.2,6.47,75.28,12.61,105.69,15.06,81.66,4.37,81.66,4.37l19.56,1.93s-17.79-1-21.26,2.06,17.85,4.54,17.85,4.54-34.44-.55-45.07,1.64,9.36,4.11,9.36,4.11-24-1.8-41.05,1.8-7.65,7.34-7.65,7.34-7.87,1.41-7.87,2.83,31.47,1.8,31.47,1.8-46.78-1.42-77.19.77c0,0,13.25-1,20.63-3.34s-13.82-2.45-13.82-2.45,5.53-3.09,4.89-4.89-43.6-7.46-43.6-7.46,33-.9,33.82-2.83-24.67-7-36.58-7.07-1.7,4.11-1.7,4.11-53.38-8.1-85.06-8c0,0,6-1.68,6.59-4.25S64.22,196.7,64.22,196.7s11.06.26,11.91-1.41S0,189.63,0,189.63v68.18s165.3,2.06,214.92,0l-12.76-1.54,131,2.46,17.29,1.4s-19.77.56-21.26,2.14,82.93,6.35,109.72,3.78c0,0,.64-1.86-20.83-3.12l49.19,4.66,25.44,1s-28.06.64-34,2.44,60.44,4.46,102.92,3.73,44.64-2,46.61-2.89-1.82-1.57-1.82-1.57l8.87,1.55s-8.73,1.51-8.87,3,32,1.62,32,1.62l-6.58-3.15s3.61-2.57,2.34-4.12-8.3-3.09-8.3-3.09l107.6,1.5s-10.91-.47-12.69,2,27.84,2.5,44.19,3,31.37-1.59,32.93-2.19S793,268.1,793,268.1s82.23-2.62,128.16-5.17,55.07-6.57,54.92-9.81-5.87-2.85-5.87-2.85l92.15-14.84,25.52-3.09s-24.85,7.14-23.06,9.62,126-11.59,126-11.59Z" transform="translate(0 0)"/><path class="cls-19" d="M349.59,237.49c-7.33,2.89,92.29,5.66,92.29,5.66s-72.72,2.12-77.4,4.92S454.22,267.33,521,269.39s99.09-2.11,102.49-6.46-58.69-9.22-58.69-9.22S579,251.19,580,248.07s-70-10.58-70-10.58,58.44,1.8,69.32-2.83-127.59-17.24-156.08-13.38,11.48,9.52,11.48,9.52S371.45,228.85,349.59,237.49Z" transform="translate(0 0)"/><path class="cls-20" d="M802.53,256c-3.34,2.2,51.78-4.68,51.78-4.68s-39.29,7.29-41.2,9.21,47.74,3.62,84.74-.88,59.49-10.15,60.35-12.82-34.23-.1-34.23-.1,7.17-2.57,7-4.36-40.73.12-40.73.12,32.37-3.94,37.26-7.4S853.74,236.44,839,241s8.47,4.24,8.47,4.24S812.5,249.45,802.53,256Z" transform="translate(0 0)"/><path class="cls-21" d="M748.32,296.66a17.82,17.82,0,0,1-2.59.47C746.82,297,747.7,296.81,748.32,296.66Z" transform="translate(0 0)"/><path class="cls-22" d="M897.85,299.52l21.2-.58-4.58-.14L945,299Z" transform="translate(0 0)"/><path class="cls-23" d="M438.44,0s-10.2,8-3.83,10,31-7.71,31-7.71-2.51,9,6.42,16c0,0-18.71,10.29-16.59,13.38s38.28-10.29,38.28-10.29-.85,3.6,14,.51S580.07,0,580.07,0Z" transform="translate(0 0)"/><path class="cls-24" d="M472.44,0s-2.29,10.29,0,14.75,15.62-1.2,15.62-1.2-33.17,15.27-32.61,18.1,38.28-10.29,38.28-10.29-1.7,6.06,30.34-2.16a369.38,369.38,0,0,0,56-19.2Z" transform="translate(0 0)"/><rect class="cls-25" y="315.96" width="1190.83" height="95.71"/><path class="cls-26" d="M616.38,111.5s-.55-8.24,6.82-16.3c0,0-10.21,1.54-11.91-5s34-8,34-8L658.94,95.2l-15.33,16.3Z" transform="translate(0 0)"/><path class="cls-27" d="M660.63.26S658.55,6.62,662.14,8,683,8,683,8s-6.52.19-13.89,5.36,9.92,9.26,9.92,9.26-5.73-2.81-19,2.88l-7.61-14.74s-21.28-4-44,2.11-13.05,26.53-13.05,26.53l34-7.37s-15.31,4.83-24.39,14.61a24.09,24.09,0,0,0-11.67,9.78c-4.2,7.2,15,11,15,11l25.88-1.94s-8.79.92-11.34,4.57,3.68,4.55,3.68,4.55l47.52-23.77,27.39-21.34L711.38,0Z" transform="translate(0 0)"/><path class="cls-28" d="M1108.08,0s-42.8,23.67-67,26.76-23,0-23,0-16.58,4.29-25.09,1.37a228.24,228.24,0,0,1-45.51,19.21s21.27,1,23.39,4.89S937.69,69.47,834.34,89.8c0,0,9.79,1.08,12.34,7.1s-53.16,22.49-67.62,22.23,7-12.37,7-12.37-6.24-5.2-.18-8.37l-35.27,16.36s-18.71,21.62-72.72,29.08-58.7-4.63-58.7-4.63l-10.63.26s-24.24,8.74-49.76,9.77-11.48-10.29,41.26-18c0,0-3.83-7,5.1-13.63h0c-1.08.21-31.41,6.49-29.74-3.62,1.7-10.29,25.09-16.93,33.17-17.08a11.23,11.23,0,0,1,1.79.1l.12,0,.75.16.12,0c5,1.35,4,6.74,4,6.74l5.1,1.28,12.76-8.33s-18.71.87-15.74-5.82,21.27-8.49,21.27-8.49l1.7-2.83s-17.86-1-16.59-5.11,8.87-6.32,9.34-6.46c-.88.08-28.63,2.44-31.88-4.64-5.59-12.2,34.59-29.81,38.23-31.4-3,1.13-30,11-40.76,8.82a.09.09,0,0,1-.09,0,6.26,6.26,0,0,1-3.25-1.53,2.33,2.33,0,0,1-.3-.35c-6.81-8.07,16.33-26,45.67-28.78a45.89,45.89,0,0,1,5.07-.22c23.55.17,15.06,20.63,15.06,20.63S681,24,674,30.88l9.78-4.64S661.25,21.87,678.26,10c0,0-31.47,1.55-8.08-10Z" transform="translate(0 0)"/><path class="cls-29" d="M625,130s-17.29-2.74-5.67-15.61,41.54-22.64,41.54-22.64-13.19,1.37-12.34-4.72,12.34-12.4,12.34-12.4-24-6.21-12.05-16.5,62.66-21.61,62.66-21.61-21.55,3.94-22.4,1.2,23-13,23-13S687.66,21.29,702.07,13C733.83-5.15,774.94,1.37,779.19,1.89S782,7.72,782,7.72s22.11-6,29.48-5.15S822,7.72,822,7.72L850.07,0h258s-19.21,9.78-45,20.8-45,6-45,6C1007.43,30,993,28.13,993,28.13S982.7,33.52,970.86,38.9,940.24,51,940.24,51c11.62-1.55,20.13-1.89,20.13-1.89s10.49.68,10.49,3.17-6.22,7.4-45.94,17.4-93.56,20.25-93.56,20.25c-2.27,5.49-14.17,7-14.17,7s4.25-.16,19.84-1.53,13,1.53,13,1.53-5.67,9.45-31.75,16.48S776.89,119,776.89,119c-.61-4.35,21.58-13.67,21.58-13.67-1.13-1.71,5.11-5.15,5.11-5.15l-53,14.58c-6,6-23.29,21.53-63.42,28.85,0,0-60.2,10.09-68-4.4l-10.63.26s-27.27,10.13-55.32,9.78C553.19,149.24,571.36,136.37,625,130Z" transform="translate(0 0)"/><path class="cls-30" d="M697.06,87.06s-55,8.09-73.71,23.53,13.32,17.8,13.32,17.8-20.8,4-20.28,7.81c.62,4.42,25,7.37,25,7.37s28.06,1,63.79-8.75,49.76-26.5,50.18-28.56-21.26-1.8-21.26-1.8S844,91.25,893.78,74.62c51.65-17.24-43.61-21.87-43.61-21.87S951.39,20.33,988.39.26h-125s-42.53,6.89-65.92,15.79c0,0,10.58-5.24,12.33-9.36S782,4.34,751.5,14.23c-25.1,8.15,32.74,5.48,32.74,5.48S695.78,38.18,671.12,52.49s74,7.46,74,7.46-38.28,9.28-41.26,14.67,32.33,2.57,32.33,2.57L701.74,90.27S708.62,84.45,697.06,87.06Z" transform="translate(0 0)"/><ellipse class="cls-31" cx="827.23" cy="60.92" rx="82.66" ry="24.22" transform="translate(17.58 241.14) rotate(-16.76)"/><path class="cls-32" d="M264.53,21.36S276,35.87,273.66,39.42s-4.41,4.06-4.41,4.06,25.35,3.17,44.19,16.21,8.93,19.56,8.93,19.56L253.9,64.58,229.23,43.74,227.32,21S262.61,18.79,264.53,21.36Z" transform="translate(0 0)"/><path class="cls-33" d="M414,51.22s12.32,3.2,21.67,8.09A31.1,31.1,0,0,1,448,62.37c5.77,3-1.74,8.82-1.74,8.82l-8.23-4.81s2.34,5.29,1.71,8.24-7.66-.18-7.66-.18l-38.28.21s21.41,5.47,23.32,15.16-14,9.51-14,9.51,21.26-4.12,35.51,0,13.23,14.78,13.23,14.78l-13.65-2.6A14.62,14.62,0,0,1,449.75,118c4.36,6.54,0,10.42,0,10.42l-46.57-8.75L382.34,82.26,410,59.69Z" transform="translate(0 0)"/><path class="cls-34" d="M0,74.44s58.69,23,108.88,36.88,92.14,14.76,98.38,12.87,6.24-5.32,6.24-5.32L340,142s-9.92-1.37-18.14,2.06c0,0-12.2-2.32-22.4,0s7.37,8.4,7.37,8.4,42.81,9.61,82.79,13.72,43.1.52,43.1.52l27.22,3.43s18.43,3.26,33.17,4c0,0,4.82-3.09-13.33-6.69,0,0,4-3.09-6.8-6.52,0,0,7.94-6-12.76-13.21s-39.69-9.61-45.93-8.23,6.8,6,6.8,6l-7.09-.69s-3.4-2.23-16.16-4.29c0,0,17,1.89,23.54-2.57,0,0,25.23,7.38,40.26,5,0,0,23.25,5.83,28.07,4.11s-8.79-6.34-8.79-6.34,4.82-3.95-16.73-12.35-28.64-9.78-28.64-9.78,5.67.51,6.52-1.37-5.67-5-5.67-5,11.63,4.46,15.31,2.92-18.14-13-30.9-15.61-17.58-.17-17.58-.17,17.91-1.81,2-20.76c0,0,7.09,2.4,6-2.23,0,0,11.91,6.86,17.58,4.63s3.4-6.52,3.4-6.52,7.94-1.71,6.52-5.66c0,0,5.39,4.12,7.66,2.41s-8.79-10.12-9.64-7.55c0,0-6.81-6.69-8.23-4.63,0,0-13.32-8.92-18.71-8.75s-4.54,3.09-4.54,3.09-4.53-1.72-7.65,1.88,1.7,10,1.7,10-5.95-7-8.51-4.11c0,0-19.84-13.9-38-14.93A34.48,34.48,0,0,0,324.64,58s-10.49-6.35-16.16-3.43-.57,11.32-.57,11.32-29.19-9.26-61.09-18c0,0,9.49-.35,9.21-4S240.43,24,240.43,24s44.8,14.93,56.43,13.38,7.65-5.31,7.65-5.31,8.51.85,7.94-2.06c0,0,41.11,12.69,45.37,8.75s-16.17-19.39-16.17-19.39,17.87,6.86,25,2.75.86-14.07.86-14.07,5.67.69,5.67-2.57A8.39,8.39,0,0,0,370.86,0H161.05s-9.36-.17-12.2,9.09L115.4,0H0Z" transform="translate(0 0)"/><path class="cls-35" d="M288.75,0S314,6.74,331.45,16.05s10.2,10.19,10.2,10.19,19.85,10,16.17,12.53-24.95-2.92-43.67-8.24c0,0,.36,2.36-9.64,1.55,0,0,3.3,3.81-2.34,5.23s-21.64-1.22-37.61-6S240.43,24,240.43,24l-13.11-3S216.05,9.39,189,0Z" transform="translate(0 0)"/><path class="cls-36" d="M67.2,0,99.52,10.55s-.85-3.35,5.53-5.28,31.9,6.57,58,19.09,32.32,26.07,32,28.81-8.51,3.95-8.51,3.95,14.75,1.89,24.95,6.69c0,0,2.27-7.38,19.57-8.41s56.7,14.93,70.6,24.36c0,0,0-5.49,3.11-8.06s9.08-.17,9.08-.17-6.52-6.52-3.4-9.26,39.69,2.23,63.22,17.49S402.9,105,400.91,107.38l12.48,9.43s3.46-3.28,19.28,1.2,23.81,12,17.29,13c0,0,21.9,4.6,26.09,10.12,0,0,10.77,1.89,13.61,5.83,0,0-3.16,1.95-28.07-4.11,0,0-6.53,1.4-19.39-.44a129.14,129.14,0,0,1-20.87-4.54s-2.56,4.12-23.54,2.57l-5.35-1s4.15,2,5.21,3.6-6.59.58-6.59.58l19.88,5s-1.05-2,2.23-2.83,28.61,6.11,28.61,6.11-2.24-3-1.6-4.76,23.29,4.25,26.48,8.37-6.28,2.51-6.28,2.51,11.27,3.21,14.46,5.4.21,3.21.21,3.21,16.77,2.92,18,7.45c0,0-7.37.27-24.49-2,0,0,1.17.77-13.5-.64s-10.53-2.19-10.53-2.19l-11.87-2.57s-6.74,4.12-51.61-1-74.85-12.15-76.76-12.86,2.48-.41,2.48-.41-8.44-2.87-6.84-4.48,19-1.41,19-1.41-1.91-1.61,1.06-2.19,24.35-.19,24.35-.19-6-1-4.43-2.19c0,0-98.38-15.18-126.45-23.16,0,0,2.5,2.87-9.38,5.81S129.55,123.47,75.7,105,0,74.44,0,74.44V0Z" transform="translate(0 0)"/><path class="cls-37" d="M61.24,0l63,30.39s-16-15.54-17.58-20.33,57.48,13.06,71.45,29.36,0,18.9,0,18.9L288.63,95.2S302.41,78.14,313,74.65c27.22-9,56.14,11.76,72,22.25s9.64,11.41,9.64,11.41,35.16,14.16,42,19.31-7.94,0-7.94,0S449.11,137.57,448,140s-59-14.41-59-14.41,12.44,6.63,7.94,10.29-86.19-10.29-86.19-10.29,21,4.46,22.11,7.89S258,128,207,112.87c0,0-4,18.52-72.38,6.85C75.64,109.66,0,74.44,0,74.44V0Z" transform="translate(0 0)"/><ellipse class="cls-38" cx="343.02" cy="112.29" rx="28.84" ry="107.91" transform="matrix(0.18, -0.98, 0.98, 0.18, 171.43, 429.83)"/><ellipse class="cls-39" cx="113.49" cy="82.26" rx="28.84" ry="107.91" transform="translate(12.33 179.28) rotate(-79.74)"/><ellipse class="cls-40" cx="451.94" cy="177.54" rx="126.09" ry="87.76"/><path class="cls-41" d="M763.89,278.91l48.3,36.54h222.13l-214.5-48.83L793,268.1s4.53,2.58,9.36,5.67S763.89,278.91,763.89,278.91Z" transform="translate(0 0)"/><polygon class="cls-42" points="720.73 269.65 748.32 315.45 669.72 315.45 673.8 280.2 720.73 269.65"/><polygon class="cls-43" points="633.97 276.17 578.97 316.65 616.38 315.45 650.86 277.87 633.97 276.17"/><path class="cls-44" d="M638.76,315.45,680.88,318,605,319.56H707.19s-77.93,1.38-79.31,1.72,107.13.17,109.2,0-26.78-1.54-26.78-1.54,33-.84,33.87-1.28-54.61-1.21-54.61-1.21l21.6-1.29Z" transform="translate(0 0)"/><path class="cls-44" d="M606,327.71c-1.08,0,88.68,2.27,88.68,2.27s-65.75,1.21-66.53,1.59,68.86,1.67,68.86,1.67-46,.48-48.18.86,28,1.35,28,1.35-67,3-69.78,3.38,130.11.33,131.41-.05-38-2.34-38-2.34,16.66-.69,18.22-1-27.73-.84-27.73-.84,28.51-.32,29.16-.45-25.92-1.86-25.92-1.86,49-2.51,49-2.83C743.19,328.14,650.84,327.58,606,327.71Z" transform="translate(0 0)"/><path class="cls-44" d="M628.22,347.19s54.11-4.73,147.66-.09C775.88,347.1,685.87,348.73,628.22,347.19Z" transform="translate(0 0)"/><path class="cls-44" d="M120.22,315.45s804.17-2.06,1004.26,0C1124.48,315.45,177.87,317,120.22,315.45Z" transform="translate(0 0)"/><path class="cls-44" d="M623.9,376.41s54.1-1.48,147.66,0C771.56,376.38,681.55,376.89,623.9,376.41Z" transform="translate(0 0)"/><path class="cls-44" d="M663.75,364.38s8-1.25,21.71,0C685.46,364.36,672.23,364.79,663.75,364.38Z" transform="translate(0 0)"/><path class="cls-44" d="M702.05,387.67s8-1.25,21.71,0C723.76,387.65,710.53,388.08,702.05,387.67Z" transform="translate(0 0)"/><path class="cls-44" d="M580.22,387.67s42.25-1.25,115.31,0C695.53,387.65,625.24,388.08,580.22,387.67Z" transform="translate(0 0)"/><path class="cls-44" d="M651.6,382.47s25.12-3.94,68.55-.07C720.15,382.4,678.36,383.76,651.6,382.47Z" transform="translate(0 0)"/><path class="cls-44" d="M651.6,352.07s25.12-3.95,68.55-.08C720.15,352,678.36,353.35,651.6,352.07Z" transform="translate(0 0)"/><polygon class="cls-45" points="1190.83 381.86 483.19 390.73 711.38 393.67 37.99 400.36 432.52 391.11 0 383.03 1190.83 368.79 1190.83 363.82 0 363.82 0 411.68 1190.83 411.68 1190.83 381.86"/><polygon class="cls-46" points="1191 339.09 312.17 339.09 1191 346.45 1191 339.09"/><polygon class="cls-47" points="0 350.29 941.87 363.82 0 363.82 0 350.29"/><polygon class="cls-48" points="0 398.47 941.87 412 0 412 0 398.47"/><path class="cls-49" d="M293.45,315.45l11.06,6s145.11,5.08,151.66,6.21-115.93,5.7-115.93,5.7l67.19,5.7-95.26,12.37-153.11,5.6s199.89,6.76,213.5,6.76H0V316Z" transform="translate(0 0)"/><path class="cls-50" d="M785,317.46l47.53,3s-58.3,2.36-60.57,3,15.88,2.37,15.88,2.37L836,329.7s-86.9,7-89.39,9.2,419.12.19,419.12.19L932.4,335.4s127.17.28,133-4.51S878,320.47,878,320.47l53.3-2.5Z" transform="translate(0 0)"/><path class="cls-51" d="M802.39,361.82l363.34,2.37S1033.17,352.61,802.39,361.82Z" transform="translate(0 0)"/><polygon class="cls-52" points="179.76 315.45 432.52 321.48 919.05 321.8 1009.11 315.45 179.76 315.45"/><ellipse class="cls-53" cx="632.2" cy="195.01" rx="140" ry="144.09"/></g></g></svg>