<svg xmlns="http://www.w3.org/2000/svg" xmlns:xlink="http://www.w3.org/1999/xlink" viewBox="0 0 348.86 344.92"><defs><style>.cls-1{isolation:isolate;}.cls-2{fill:url(#radial-gradient);}.cls-3{opacity:0.2;mix-blend-mode:multiply;}.cls-4{fill:#b89834;fill-rule:evenodd;}</style><radialGradient id="radial-gradient" cx="210.76" cy="241.83" r="321.81" gradientTransform="translate(60.27 46.99) scale(0.54)" gradientUnits="userSpaceOnUse"><stop offset="0" stop-color="#fcfced"/><stop offset="0.27" stop-color="#fafaea"/><stop offset="0.47" stop-color="#f5f3e1"/><stop offset="0.64" stop-color="#ebe8d1"/><stop offset="0.81" stop-color="#ddd8ba"/><stop offset="0.88" stop-color="#d6cfae"/><stop offset="0.93" stop-color="#d9d1b0"/><stop offset="0.96" stop-color="#e1d9b5"/><stop offset="0.98" stop-color="#efe7be"/><stop offset="1" stop-color="#fff5c7"/></radialGradient></defs><g class="cls-1"><g id="Layer_1" data-name="Layer 1"><path class="cls-2" d="M345.68,174.76A172.46,172.46,0,1,1,173.22,2.3,172.46,172.46,0,0,1,345.68,174.76Z" transform="translate(-0.76 -2.3)"/><g class="cls-3"><path class="cls-4" d="M26.09,83.14a7.78,7.78,0,0,1,2.73-4.44c2.59-1.39,5.61-2.35,5.56-6.15,0-1.4.93-2.18,2-3C39.12,67.7,41.7,66,43,62.36c1.25-3.44,4.61-6.18,8.27-7.46,3.13-1.09,5-2.91,5.6-6a6.42,6.42,0,0,1,1.71-3.19c2-2.29,4.91-3.58,6.46-6.29,3.6-1.26,6.12-4,9-6.38.37.6.91,1.12.82,2-.82.34-1.78.49-2.36,1.65,1,.89.94,2.24,1,3.56-.47.22-1.25.08-1.17,1,.91.19.84-.62,1.13-1.05,1.6-.47,2.41-2.63,4.84-2.29-1.56,2.56-4.25,4-4.77,7.3,2.38-.93,3.34-4.52,6.4-2.86.19,2.5-2.25,3.89-2.28,6.41a8.87,8.87,0,0,0,4.74-1.87c1.41-1.08,2.79-2.39,4.72-2.29a4.52,4.52,0,0,0,4.54-2.84c.85-2.19,2.69-4.28,1.48-7.06a2.22,2.22,0,0,1,1.42-3.06c1.34-.56,2.69-2.1,3.86-1.93,4.48.67,7-3.22,10.69-4.18,1-.26,2.11-.31,2.85-1.21,6.06-4.85,14-2.14,20.27-5.29,1.16.51.65,2,1.9,2.23,1.5-1-.41-3.2,1.32-4.13,4,1.35,7.51-.47,11-1.72.66.4.08,1.4,1.08,1.6,1.91-.71,3.78-2,6.06-2,1.27.33,2.55,1.62,3.68-.41.41-.72,1.27.39,2,.31l.66.08c2.87.33,3.06-2.92,5.05-3.76,7.15,6.64,15.29,8,24.4,4.25,2,4.69,5.72,6.08,10.28,5.86,3,2.79,1.48,7.89,5.31,10.26,2.27-1,3.81-4.05,7.59-2.14-1.07-3-3.86-4.08-4.48-6.22-.91-3.11-3.87-2.62-5.95-3.8,1.47-1.79,4.45-1.54,4.39-4.34,2,.33,2.75,3,5.14,2.53,1.92,1.26,2,4.46,5.43,4.2-2.49,2.21-2.49,2.21-3.12,3.79,3.35,1.1,4.18.73,7.92-3.58a5.69,5.69,0,0,0,3.18.66.91.91,0,0,0,.52-.15l0,0a4.45,4.45,0,0,1,3.28-.82c3.69,1,7.26,2.44,11.1,3.11,1.79.31,3.34.91,5-.31a8.27,8.27,0,0,0,4.43,5.29,4.41,4.41,0,0,1,3,4.11c-1.53,1.43-.93,2.65.36,3.82-.94-.06-2.11.21-2.78-.24-3-2.06-6-.65-8.81-.05-3,.64-4.58-.32-5.36-2.75s-2.3-2.64-4.37-2.45-3.24,1.38-4.67,2.45l-1.15-.44c-1.08-1.51-2.31-1.88-4-.86a6.52,6.52,0,0,1-3.21,1.09c-3.55,0-4.51,1.65-3.88,4.86.22,1.07-.39,2-1.54,1.88-1.8-.24-3.84.06-5.17-1.72a21.74,21.74,0,0,0-5-4.26v-.06c.74-3.84.37-4.42-2.47-3.75-2.21-.52-2.28,2.29-4,2.54-.76-1.49-2.28-1.55-3.64-1.9-.28-2.25-.93-4.25-3.43-4.95-3.08-.79-6.2-1.52-9.25-2.39-2.29-.66-4.52-1.56-6.92-.53-5.54,1.56-10.77,5.11-16.95,2.75-1-.79,1-1.53,0-2.43-.94.08-2-.12-2.74,1,.31.67.64,1.38,1,2.09-.79.72-1.71,1.38-1.48,2.67-1.37.48-2.74.94-4.1.08.09-1.18,1.93-1.3,1.23-2.74-.5-1-1.44-1.66-2.24-1.38-2.56.88-4.9,1.86-4.62-2.45,0-.08-.13-.22-.2-.22-2.25,0-2.34-2.27-3.59-3.55a5.75,5.75,0,0,1-4.53,1.89c2.55,2,.72,3.38.32,4.89-1.8-.95-3.22.16-4.72.83-2.13-.54-3.54,1-5.21,1.79l-3.2.77c-.21-2.88-2.74-2.64-4.43-2.84-3.81-.46-5.5,2.37-7.07,5.18.7.74,1.48.57,2.18.72a7.06,7.06,0,0,1-4.51,4.3c-3.21.15-6.25,1.64-9.59,1-1.91-.37-2.42,1.21-2.71,2.74-1.75.48-1.55,2-1.81,3.3-2.72,1.76,1,2.25.65,3.55-3.43,2.36-7.27,11.2-7.44,17.21,4.57.24,10,2.9,11.92-4.6,2.26,2.77,5.61,2.52,6.55.5,1.52-3.19,4.53-4.5,6.35-7.09a2.87,2.87,0,0,0,.49-.26c1.14,0,1.85,1.43,3.27.95.28-1.72-1-1.73-2.08-2-.22-3.43,1.67-6.18,3-9.1a3.44,3.44,0,0,1,2.47-2.25c2.72-.4,5.08-2,7.85-2.11l6.38-.43,0,0c-.17,2.29,1.31,3.08,3.18,3.53l1.18,0c.88.24,1.16-.36,1.44-1q3.11-2.86,6.23-5.71c2.08.45,4.4.72,6-.57,2.76-2.2,5.84-2.44,9.06-2.6,1.23,1.13,2.82,1,4.32,1.27-.47.6-1.59,1.12-.72,2s1.9.14,2.79-.36l.3.72,0,.13.05-.12c1.2,0,2.16-.11,1.48-1.77-.32-.77-1.47-1.4-.64-2.49a13.15,13.15,0,0,1,5.17-1.13,2.84,2.84,0,0,1,3,1.93c.41,1.42-.78,2-1.6,2.79-.64.59-1.83.46-2.1,1.4,3.58,2.7,8.21,1.76,11.88,3.88,1.43,2.56,4.32.9,6.21,2.17a1.68,1.68,0,0,1-.25,1.75c-1.7,1.62-1.46,2.79.61,3.84,1.45.74,2,2.31,2.94,3.53.73,2.15,1.52,4.27,2.19,6.43a3.89,3.89,0,0,0,2.93,3c3.52.65,3.92,2.84,3.13,5.76v0c2.39-.65,4.54-1,5.58,2.19.28.82,1.55,1.3,2.37,2-.73,2.21.66,2.27,2.21,2.16.1,1.29-.85,2.14-1.3,3.2-1.71.86-1.22,2.28-1.12,4.13,1.22-1,2.08-1.86,3.3-2,1.25-.32,2.12,1,3.67,1-1-1.55-1.87-2.83-1.61-4.45.85-1.57,4.33-2.15,1.87-5,2.72-3.69,6-6.35,10.91-6.37,3.3,2.45,7.39,2.77,11.08,4.17.14,2.06,1.9,3.15,2.85,4.72l-.16,0L242,73c1.76.21,3.42-.68,5.29-.28a2.86,2.86,0,0,0,2.81-2c.4-1.49-.53-2.33-1.74-3-1.95-1-4-1.84-5.46-3.61.7-1.76-.47-2.42-1.78-3l1.2-3.09c-1.78-.52-3.19.79-4.76.47.93-1-.59-2.82,1.43-3.75,1.69,2.41,4,0,6.13.59,3.86.72,5.55,3.89,7.81,6.49-1.61,1.21-2.8-.92-4.64-.05,2.17,2.07,5,1.69,7.16,3-.49.8-1.2.58-1.79.71-1.23.27-2.39.73-1.83,2.26s1.74.7,2.67.41a18.33,18.33,0,0,0,1.93-1c1.21-.58,2.91-.27,3,.72.16,3,3,5.44,1.52,8.79-1.28,2.81-.41,5.11,2.5,6.47h0l1.27.62c.89,1.07,2.36.67,3.4,1.36.31,2.29.36,4.69,2.58,6.16.75,1.51,2.79,2.31,2.38,4.43-2.89,1.37-2.67,3.4-1.51,5.91,1.37,3,2.92,5.93,3.38,9.25,0,.43-.06.85-.08,1.28-.51,1.85,1.86,2.57,1.7,4.28a10.17,10.17,0,0,0,.83,4.75c.43,1.21,1.1.93,1.74.11,1,.36,1.7,1.72,3.05.9.73-2.67,1.47-5.33,2.2-7.93,1.74-.27,2.32,1.66,3.92,1.91.81-2,.15-3.93-.32-5.81-.24-.94-.49-1.88.55-2.5a2.56,2.56,0,0,1,2.69.12c.7.43,1.33,1,2,1.47-.08.81.11,1.78-.27,2.41-1.57,2.59-.2,3.26,2.07,3.47l2,.27.83.08,2.08,1.2a.73.73,0,0,0,.12.34,4.42,4.42,0,0,1-.9,2.86c-1.46,1.6-1.85,3.33-.67,5.26.43,4.25.59,8.65,5.47,10.6l3.09.19,1.66.8c.88,2.52,2.65,3.49,5.24,3-.44,1.34.56,3-1,4.27-2-1.24-3.64-.77-4.68,1.46-.58-.61-.26-1.95-1.66-2-1.4,1.44-.43,4.2-2.73,5.16-.22-.64-.69-.92-1-.26a2.4,2.4,0,0,0,.61,3.24c1.37,0,1.41-1,1.59-1.89l2.67-.61c-.47,2,1,2.66,2.34,3.31-.63,1.82-1.43,3.16-1.6,5.05-.19,2.17-.75,5.44-2.42,6.63-3.64,2.59-4.56,5.24-2.56,9.08a1.35,1.35,0,0,1-1.45.21l-1.32-.26a1.47,1.47,0,0,0-1.26-1,8,8,0,0,0-8.18-.93c.84-2.51,1.56-4.91-2.68-4.26-.33.06-.77-.25-1.11-.49-2.44-1.7-3.14-.41-3.28,1.89a9.61,9.61,0,0,1-2.59,5.78,9.93,9.93,0,0,0-2.49,8.88c-1.42.34-2.84.76-4.29,1-2.26.35-2.07,1.75-1.4,3.23a2.77,2.77,0,0,0,3.86,1.51c.51,2.2.3,4-1.72,5.3a3.15,3.15,0,0,0-1.45,2c-.26,1.27-.47,2.69-2.3,2.17-1.64-.46-1.33-1.92-1.3-3.15a8,8,0,0,1,.27-1.87c.45-2-.27-2.77-2.28-2.37,0-.39.1-.82-.88-1l.93,1c-1.19,3.52-1.73,3.63-4.54,1.41-1.77-1.39-2.32-3.63-3.94-5.08,4.81-1.21,6.28-4.48,4.79-11.08-2.14,1.35-3.35-.29-4.46-1.49-1.36,0-1.72,1.54-3.06,1.34-1.3-1-1.11-3.74-3.65-3.61a5.42,5.42,0,0,1-.18-3.38c.16-.92.2-2.39-.71-2.47-2.25-.19-2.54-2-2.94-3.33-.87-2.92-2.28-2.49-4.11-1.11l-1.44-.65a1.61,1.61,0,0,1,.24-1.66c2.06-3.39,2.56-7,.52-10.54-1.09-1.87-2.15-3.75-3.15-5.67.15-1.32,1.34-2,2.27-3.21-3.34-1.2-2.83-5.31-5.78-6.72,3,1.15,5.52-2,8.58-1.09.67.19,1.12-.89,1.18-1.63.18-2.29.95-3.56,3.67-3.56,1.6,0,2-1.88,1.73-3.44s-1.22-1.08-2.09-.45a2.15,2.15,0,0,0-2.52-.12,15.18,15.18,0,0,1-7.43-1.62c-1.7-1.61-3.76.26-5.54-.59l-1.54-.27c-3.07-3.65-6.09-7.38-11.78-4.82-1.09.5-2.37.81-2.4,2.12a2.38,2.38,0,0,0,2.23,2.41c1-1.23-1.1-1.56-.46-2.63a3.61,3.61,0,0,1,3.91.62c-2.21,1.26-2.09,3.16-1.52,5.16l-2.38,0c-1.7-2.24-3.7-2.89-6-1-2.77-2.31-2-4.65-.45-7.24-3,2.73-6.27,1.22-9.33.94-3.3-.3-4-2.47-1.83-5.16,1.25,1.23,2.22,2.79,4,3.42.63.23,1.22.36,1.74-.18a1.28,1.28,0,0,0,.15-1.44c-1-3.06-3.53-6-.47-9.37.64-.7-.41-1.45-1.13-1.91a1.84,1.84,0,0,0,0-.41c.64-1.09.53-2.7,2.34-3,.83-.13,1-1.09.85-1.83-.32-1.52.24-2.88.55-4.3.14-.69.61-1.81-.14-2-2-.54-4-2.35-6-1.67-3.2,1.12-3.45.28-3.39-2.72.06-3.26.42-7.11-4-8.61-1-.33-1.08-1.37-.36-2.37,1.35-1.87,0-2.34-1.51-2.63l-.06-1.22c-.08-1.62-.86-2.18-2.41-1.58-.88.28-1.22,1.09-1.75,1.72-2,.55-3.25.09-2.74-2.72a4.55,4.55,0,0,1-3.39,1.47c2.45,3.07,6.09,4.41,7.71,7.92-1,.89-2.75,0-3.68,1.23-1.26,1.67-2.72,1.7-4.7,1-3.56-1.29-7.78-.52-8.45,2.41-1.09,4.78-5,4.54-7.86,6.3-.85.53-2.1.33-2.7,1.46.59,1.46,2.16,2.4,2.32,4,.21,2.39.59,4.3,3.42,5.32,2.1.76,3.48,3.19,6.19,3.11,2.41-.07,6-1.89,5.26,3.26,0,.12.29.29.45.41,1.25.87,1,2,.41,3.06a2.91,2.91,0,0,0-1.55,2.7c-.93-.14-1.88-.43-2.56.57-2.89,4.16-8.74,3.29-11.9,7-.19.23-.8.12-1.21.18a3,3,0,0,1-3.34-1.81,2.65,2.65,0,0,1,.68-3.4c1.21-1.16,2.22-2.5,3.36-3.74.83-.9.76-1.73-.22-2.37-.56-.37-1.16-1-2.08-.48.06.78.13,1.58.21,2.59-3.46.22-4.26,2.24-4.36,5.31-.1,3.54-2.55,6.49-5.22,7.16,0-1.85,2.88-2.39,2.05-4.72-1.63.72-3.25,2.06-4.81,2-2.77-.12-1.49-2.79-1.75-4.55-2.07.18-3.8.64-4.84,2.17-1-.2-.85-1.5-2-1.31-1.93,1.87-2.82,5.5-6.64,4.65-2.38-.53-1-2.79-1.64-5-1.7,2.22-3.23,3.67-5.55,4.37-2.52.76-3.4,0-3.69-2.18a10,10,0,0,1,.06-4.34c1.28-.91,1.62,1.09,2.89.31-1.36-2.32-3.44-3.91-5.27-5.72a4,4,0,0,1-1.14-3.76c.29-1.59,1.75-1.22,2.83-1.24s2-.19,2.08-1.38c.2-2,.26-3.94.38-5.9h-.54c-.13,1.31-.27,2.62-.34,3.4-1.94-.49-3.84.76-5.49-.29-.48,2.19,1.09,4.07.16,6-1.24-.31-1.92-1.22-3.06-1.32-2.42-.22-5.17,0-5.26-3.71,0-.55-1-.7-1.61-.73-.36-.76-.61-1.67-1.79-1.24a2.22,2.22,0,0,0-1.41,2.79c-.63,2.14-2.08,1.69-3.57,1.14h-.67c-2.07,2.22-2.7.65-3.11-1.55-2.38,2.43-5,3-8,1.57.55,3,2.38,3.8,4.75,4.05,2.2.23,4.09.93,4.52,3.48,0,0,0,0,0,0,.14,1.53.05,1.76-1.11,1.74s-2.21-.57-3.48.32c1.35,2.17,4.26,3.3,4.26,6.52-3-2.89-6.91-3.37-10.44-4.8l.06,0a7.43,7.43,0,0,0-3.34-2.61,11.35,11.35,0,0,1-6.11-6.88l0,0c1.38.22,3.16-1.74,4.12.45,1.41,3.26,4.46,4,7.25,5.18l.39.28-.43-.25c-2.35-4.4-6.24-7.39-10.46-10.53,2.88-1.88,4-4,3.53-6.94-.23-1.57,1-2.1,2.29-2.17,2.37,1.61.14,6.05,4.5,6.67.62-3.68,2.55-5.73,6.36-5.69a2.59,2.59,0,0,0,2.62-2.35c.2-3,.07-6,.07-9.06l-1.21-.53c-1,3.77-1.6,8-6.89,6.08-.25.71.25,1.63-.46,2.39-2-.32-4.26-1.41-5.92-.8C86.84,88.44,86.29,85.45,84,85c2.64-1,3.52-3.16,5.21-4.93,1.87,1.39,4-.81,5.94.23,1.53.81,2.39-.19,3.34-.91.77-.59.25-1.37-.08-2-.61-1.16-1.37-2.13-2.92-1.92-2.89.39-5.8.65-8.67,1.14-1.87.31-7.34-1.5-8.45-3a1.48,1.48,0,0,1-.15-1.74c.42-.83,1.15-1.8,0-2.45s-1.78.36-2.61,1.09c-2.79,2.5-5.91,4.72-9.69,5.13a13,13,0,0,0-4.73,1.11c.76,2.21-1.86,8.55-3.9,9.67-.41,2.72,1.38,4.9,1.67,7.43-.57.14-1.4-.33-1.61.68.76.25,1.15-.29,1.58-.72,1.41.15,2.33-1.91,4.29-.7-1.21,2.51-3.29,4.31-5,6.41l.05,0c-.33.75-.14,1.7-.9,2.32-1.43-.62-1.87-2.59-3.8-2.7-2,2.14-.26,5.67-3.56,8.05,4.35.58,6,4.36,9.75,4.9a2,2,0,0,1,1.34,3c-.67,1.38-2,1-3,.46a18.57,18.57,0,0,1-2.29-1.63c-.57,1-1,1.93-1.57,2.75s-1.46,1.88-.68,3.11a1.36,1.36,0,0,0,1,.54c1.53-.23,1.28-1.69,1.72-2.68.08-.17.3-.27.55-.5,2.3,0,3.55.95,2.75,3.5a2.54,2.54,0,0,0,.55,2.89l-.05,0c-.49,3.22,2.7,6,.9,9.29A3.29,3.29,0,0,0,64.2,132c2-1.38,5-.54,7.09,2,1.64,2,2,3.89-.78,4.94.16,1.93,2.44,2.38,2.18,4.6-3.25-.33-6.49-.37-9.46,1.26a1.79,1.79,0,0,0,1.75,1.4c3.06.37,4,2.19,4.34,5.11.24,2.34,4.1,2.9,3.44,6.2a4.39,4.39,0,0,0,4.1,5,14.72,14.72,0,0,1,2.08.54c4,.75,6.93,4,11.25,4.45.67-1.94.56-3.68-1.09-4.84-2.71-1.93-2.19-4.6-1.23-6.8,1.06-2.46,2.26-4.9,3.49-7.54,1.56.9,3.82,0,4.45,2.27-2.64,3.17,0,7.25-2.45,10.33,3,.43,5.81.59,7,3.78.33.88,1.49,1,2.4,1.32,4.13,1.31,5.3,3.56,3.79,7.63a9.05,9.05,0,0,0-.79,4.57,4.51,4.51,0,0,1-2.09,4.56c-2.27,1.69-2.7,4.25-2.51,7,0,.61,0,1.23,0,1.85-.67,1.15-1.33,2.3-2,3.49a23.69,23.69,0,0,0,3,3.54c1.34,1,2.7,2.28,4.66,2.29a2,2,0,0,0,1.91-1.35c.39-.77-.39-.72-.85-.85a23.56,23.56,0,0,1,4.05-9,3.91,3.91,0,0,0-.65-6.29c-.81.52-1.61,1-2.42,1.56-1.13-.37-2.29-.77-2.21-2.26a1.53,1.53,0,0,1,1.4-1.48,10,10,0,0,0,6.56-3.72c1,.78,2.2,1.53,1.53,2.57s-.29,1.64.56,1.79c1.18.21,1.31-.78,1.25-1.68-.2-3.46-2-6.66-1.72-10.19,0-.44-.27-.7-.77-.8-2.1-.41-2.51-2.5-3.59-3.87-.77-1-.39-2,1.07-2.25.78-.14,1.53-.41,2.27-.61,1.28,2.56,1.28,2.56,2.82,3.57,1.23-.25.08-2,1.32-2.19,1.8,2.75,1.67,4.89-.44,6.89,1.41,2,3,2.63,5.06.83,3.92,2.67,4.95.08,5.68-3.11,0-.12.35-.18.69-.34,1.67.77,2.12,2.67,3.27,4a6.38,6.38,0,0,1,.19,8.7c-1.18,1.41-2.36,2.11-3.94.6-1.3-1.25-2.55-.69-3,.61a28.9,28.9,0,0,0-1.56,7c-.08,1.14.27,3,2,3.12,1.57.09,1.43-1.48,1.64-2.57.16-.82.18-1.73,1.87-1.81-.11,3.32.89,6.19,4.44,7.35.08,0,0,.45.11.59,2.65,3.12,5.8,5.79,8,9.28,2.14,1,2.44,2.88,2.59,4.88-.9,1.1-1,2.45-1.26,3.89,1.61.61,2.68,2.6,4.74,1.63s1-2.91,1.25-4.46a6.57,6.57,0,0,1,.4-1.18c.32-.3.17-.58,0-.85l.19-.14c-.14-.72-.29-1.43-.44-2.14a3.69,3.69,0,0,0,.27-4.15c-1.32-2.1-.39-6.18-4.68-5.9a1.21,1.21,0,0,0,.15-.54c.42-2.31,2.38-4.41,1.33-6.93-1.31-3.15.11-5.8,1-8.62,2.89.9,1,3.74,2.76,5.57.25-1.8.43-3.18.62-4.57,3.69,1.29,5.54,4.09,6.18,7.77.4,2.28.42,4.49,3.64,4.95,1.16.16,3.17,1.52,2,3.54-1.45,2.57-.69,5.07-.22,7.6.63,3.48,3.88,4.93,7.07,3.32,1.19-.59,2.22-1.68,3.75-1.27,0,.42-.06.84-.1,1.26-1.32,1.58.3,3.11.11,4.76-.36,3.08-3.12,4.78-3.74,7.61-1.23,1.64-4.06,1.19-4.71,3.59-2.23,1.67-2.61,3.1-1.23,4.65l.07,0c.05,1.23.4,2.43-.46,3.61-1.8,2.49-1.36,5.33,1.56,6.5,2.6,1,2.53,2.66,2.38,4.65-.09,1.27-.4,2.56,1.2,3.16,0,.49,0,1,0,1.48-2,.67-2.44,3-4.18,3.93l-1.29,0c-1.24-3.33-1.39-3.41-3.88-.85-.94,1-1.71.6-2.46.07a3.36,3.36,0,0,0-2.9-.69,7.26,7.26,0,0,1-4.89-.35,3,3,0,0,0-3.51.51,2,2,0,0,1-2,.48c-3.33-.51-5.73,2.85-9.12,2.31-.23,0-.59.79-.89,1.21-1.82-.39-2.45-2.47-4.21-2.93l-1.6-1.48c.54-.92.54-2.29-.11-2.65-2.34-1.35-2.23-4-3.43-5.79a36.14,36.14,0,0,1-5-12,4.83,4.83,0,0,0-2.27-3.45c-2-1.19-1-4.36,1-5.62,1.31-.85,4.67.08,3.63-3.37a7,7,0,0,0,.43-3.55c1.15-1.26.47-2.8.54-4.19a1.42,1.42,0,0,0-2.17-1.37c-1.71,1-3.87,1.86-3.35,4.56a3.89,3.89,0,0,0-2.13,2.61c-4.83,1.37-5.2,2.58-1.86,6.2.58.62.91,1.27.35,1.92-1,1.14,0,3.33-2.5,3.8-1.35.26-1.16,1.8,0,2.73a6.32,6.32,0,0,0,3.21,1.2c2.34.39,3.55,1.81,4.09,4.16.38,1.59,0,3.07-.09,4.48,1.72,1.52,4.53,1.67,4.8,4.38a7.56,7.56,0,0,0,2.45,4.63c0,.2,0,.42,0,.64a1.73,1.73,0,0,0,0,.6c0,.89,0,1.76,0,2.65-2,.27-3.67-.63-5.3-1.61-.89-.53-2.22-.86-2.3.32-.15,2.1-2.22,2.67-2.86,4.22,3.21,4.12,7.55,2.89,11.65,2.72,1.48,1.2,1.06,2.69.62,4.17-.72.15-1.54.34-1.81,1-1.35,3.31-4.12,3.25-7,3.07-.45-.23-.89-.47-1.34-.69-.91-2.64-2.6-3-4.54-.78a4.87,4.87,0,0,1-3.57,2l-2.33.41c-.3-.88-.33-2.18-.94-2.57-3-1.92-2.46-5.07-3.43-7.74,1.58-.33,1.94,1.64,3.49,1.13a4.32,4.32,0,0,0,.45-1c1.21-6,1.2-6,7.24-6,2.18,0,2.2-1.15,1.5-2.68-1-2.09-3.18-3.6-2.5-6.7-3.1,1.39-3.84-1.51-5.53-2.55-1.46,2.36-1.42,2.32,0,3.91a9,9,0,0,1,2.49,5.95c-1.72-.06-4.39,1.52-4.56-.82-.38-5.18-4.09-3.46-6.51-4.49-.57,1-.52,1.77,0,2.1,1.88,1.25,2.27,2.92.85,4.46-1,1.14-2.24,3.53-4.51,1.23-.19-.21-1.2.19-1.69.51a4.19,4.19,0,0,1-3.28.34c-.54,2-2.37,3.06-4.89,3-2.11,0-2.16-1.52-2.4-3-.57-3.55-3.15-4.91-6.55-3.54a4.71,4.71,0,0,1-1.56.14,2.53,2.53,0,0,0-.55,0c-1.29-3.22-2.9-6.2-5.91-8.16.89-2.34.75-4.47-1.22-6.24.36-4.16,3.62-7.06,4.74-10.93a2.69,2.69,0,0,1,3.44-2c1.84.67,3.74.28,5.6.46,2.39.23,3.62-.6,3.31-3.46-.28-2.53-2.66-4.7-1.2-7.47l0,0,1.91-1.29c.52,2.33,3.64,2.53,4.11,5,.09.46.84.56,1.38.35a1.76,1.76,0,0,0,1.29-1.62c0-1.87-.55-3.34-2.73-3.5-1.35-.1-2.72-.11-4.09-.17-.41-2.22-2.34-2.68-4-3.45l0,0c-1-2.72-2-5.46-3.23-8.75,2.43,1,3.32.59,3-1.38a30.36,30.36,0,0,1-.86-4c-.44,3.4-2.6,4.81-5.39,5.79a2.42,2.42,0,0,0-1.62,2.15c0,2.8-2,2.7-3.39,1.88-2.16-1.26-3.64-.94-4.85.78-1.26.28-1.13-1.89-2.43-1a2,2,0,0,0-.89,2.45c.33,1.22-.47,1.68-1.51,1.91a16.76,16.76,0,0,0-3.92.94c-1.1.53-2.1.94-2.63-.29s-.17-2.49,1.57-2.69l0,0c.13-1.83-.82-3.42-1.15-5.15-.78-4.16-2.15-4.83-5.44-2.26-1.58,1.22-1.51,3.39-1.32,5.2.27,2.57-1,2.63-2.79,2.11-1.5-.43-2.62-1.71-4.25-1.84l-.09-1.29c-.8-3-2.74-5.57-4.11-8.4,1.46-.55,2.47.59,3.44-.95-3.29-1.84-1.54-7.5-6.53-8.34.19-1.8,3.07-.92,3-3.23-4.23.44-3.91-3-4.6-5.51-.41-1.47-.09-3.13-1.81-4-1.38-.74-1.52-2.15-1.52-3.55,1.43-.57,1.89-1.52,1.44-3.18-1.56,1.53-1.56,1.53-1.39,3.21-3.46,1.38-3.91,1.26-4.33-1.3,2.12,0,3.23-.92,2.82-3.6-2.8,1.46-2.1-.73-2.31-2.08a5.77,5.77,0,0,0,.8-6.22c.68-.62,2.3,0,2.25-1.63-.05-2.06.38-4.12-1.56-5.8-2.69-2.35-3.44-5.25-2.12-8.8.58-1.56,1.5-3.5-.15-5.52-2.84,3.42-4.89,1.28-7.07-.93a4.42,4.42,0,0,0,0-4.07c-.64-1.7-1.3-3.49-.8-5.5,1.74-7.09,3.81-14.12,4.63-21.41-1.25-1.12-2.48,0-3.67-.17A8.81,8.81,0,0,1,17.75,97c3.41,0,3.38-2.38,3.3-4.79L21,92c1.94,0,2.73-1.2,3.12-2.87.44-1.82.91-3.64,1.36-5.45l0,.08ZM19.26,98.76l-.2,0,0,.2h.19A1,1,0,0,0,19.26,98.76Zm150.1,118.77h-3.17a2.38,2.38,0,0,0-1.93-1.28c0-.9,0-1.79,0-2.68,1.57-.12,2.52,1.76,4.45,1.4-.78-2.33-2-3.48-4.4-2.86-2.34,2.09-2.34,3.17,0,4.11a3.41,3.41,0,0,0,1.95,1.26c1,1.78,2.07,2.37,3.11,0Zm-68.16,17,.63,1.31c1,3.49,1.85,4,5.15,2.86-1.3-1.92-3.2-2.44-5.19-2.84,0-.65,0-1.29,0-2l.57-.28c2,.41,3.57-.69,5.48-1.08-.39-2.8-1.92-6.06,2.92-6.19.79,0,1-.94,1-1.75a1.78,1.78,0,0,0-1.55-1.73c-1.39-.3-2.81-.52-4.18-.77-.45,1.07.62,2.38-.86,2.94-1.49.06-1-2.1-2.53-2.14-1.26-.14-1.6,1.64-2.68,1.72-3.4.28-2.62,2.8-2.45,4.67.2,2.11-.41,5,3,5.29ZM80.89,186.07l.51.57c.4-.38.1-.65-.15-.93l-1.44-3.17c-1.21.94-2.85,1-3.74,2.93A6.22,6.22,0,0,1,80.89,186.07ZM30,96c1.65-.17.81,1.75,2.16,1.78a7.91,7.91,0,0,0,1-2.21c.44-3,1.42-5.48,4.35-7.16,1.9-1.09,2.89-7.06,2-9.06-2,.5-1.91,2.16-2.28,3.69-.61,2.52-1.67,5.38-3.74,6.45-2.83,1.46-4.51,3.76-6.22,6-1.34,1.74-3.17,3.8-2.07,6.89C27.36,100.14,28.14,97.47,30,96ZM182.49,62.36c.93,2.28,1.85,4.19,4.17,4.24,2.72,0,4.77-1.51,6.24-3.67,1.41.43,1.86,2.25,3.92,1.8-1.6-1.13-1.11-3.66-3.07-3.88-1.81-.21-3.52-.11-4.46-1.86-1,.24-.59,1.2-1.15,1.53-.71-.13-.76-1.35-2-.93C186.26,61.79,184.24,61.75,182.49,62.36Zm-46.2,155.2c1.24-2.18.75-4.86,2.94-6.32a2,2,0,0,0,.51-3.2,2.41,2.41,0,0,0-3.33-.64C132.6,209.23,132.41,214.24,136.29,217.56Zm.33-122.88c-1.09.76-1.11,2-.6,3.54,1.47,4.47,2.95,9,1,13.72-.29.73-.8,1.77.62,2.56C139.76,107.73,142.41,101.18,136.62,94.68Zm22.89-5.87h-2.46a2.8,2.8,0,0,0-3,3c0,2,1.77,2.12,3.26,2.06a19.63,19.63,0,0,0,3.71-.59c2-.45,2-1.85,1.44-3.41C161.8,88.07,160.19,88.92,159.51,88.81ZM62.9,148.93c-1,.36-1.18,1-1.48,1.74-.42,1-1.24,2.05-2.3,2.1-3,.13-3.17.19-2.38,3.22,3.51.43,5.73-5.52,9.74-1.82.71-1.08,1.36-1.9,1.28-3C64.92,150.87,64.92,150.87,62.9,148.93ZM92,171.57c-.24,1.66-.91,3.44,1.17,4.23,1.13-.32.54-1.89,1.9-1.69.94,1.7,1.69,3.62,3.86,4.34,2.19-1.3,1.59-3.54,2.45-6.19C97.41,175.61,95.21,170.69,92,171.57Zm33.74,63.82c2.1-1.88,5-3.11,3-6-1-1.47-3.66-2.52-5-1.07C121.29,231.09,125.15,232.69,125.75,235.39ZM76.17,64.08c2.13-1.13,3.16,2.45,4.9.25,1.12-1.42,1.14-3.53,2.84-4.61C81.82,57.73,78.72,59.36,76.17,64.08ZM44.87,75.33c2-1.25,3.6-2.28,5.23-3.36a1.26,1.26,0,0,0,.65-1.6,1.93,1.93,0,0,0-1.15-.9C46.83,68.73,44.07,71.76,44.87,75.33ZM241.4,110.26c1.85-3.31,2.24-7,2.34-10.65A12.67,12.67,0,0,0,241.4,110.26ZM39.81,98.32c-2.41,1.78-5.13.91-6.21,3.61a2.26,2.26,0,0,0,.18,2.35,1.09,1.09,0,0,0,1.66.15A11,11,0,0,0,39.81,98.32ZM212.46,36.91a4.49,4.49,0,0,1,.42-3.29c.64-1.51-.39-2.13-1.65-2.28-1.42-.17-2,.92-2.39,2-.58,1.51.08,2.77.85,4.08Zm-69.67,66.32c2.69,1.54,3.17,4.14,3.53,7.07,1.48-2.32,1.27-6.52-.25-7.81C145.1,101.67,144,101.58,142.79,103.23ZM276.87,165c2,2.73,2.53,2.54,4.63-1.61C279.63,162.77,278.28,163.61,276.87,165ZM52.44,179c-1.77,3.32-1.37,5.25,1.13,6.23A8.94,8.94,0,0,0,52.44,179Zm204.4-53.16c1.06,1.15,2,2,3.35,1.58a1.32,1.32,0,0,0,1-1.43c-.25-1.44-1.66-1.61-2.66-2.26ZM100.22,216.42c-.83.29-1.94.39-2.07,1.49a1.7,1.7,0,0,0,1.66,1.89c1.15.15,1.74-.54,1.81-1.62A1.52,1.52,0,0,0,100.22,216.42ZM73.73,176.8c.62-1.63,2.27-2.91,1.57-5.1C72.21,172.72,72.65,174.7,73.73,176.8ZM50.8,173.24c-1.34,1.16-2.37,2.06-3.7,3.2,1.53.74,2.93,1.26,4,.41S51.62,174.64,50.8,173.24ZM93,221.67c-1.1-.95-.61-3.07-2.48-3.26a.81.81,0,0,0-.78,1.08A2.87,2.87,0,0,0,93,221.67Zm51.92,16.23a1.82,1.82,0,0,0-1.59-1.64,1.64,1.64,0,0,0-1.91,1.59,1.1,1.1,0,0,0,1.29,1.34C143.64,239.14,144.64,239.11,144.94,237.9ZM92.76,187.33c1.62-1.42,1.59-2.71.53-4-.43-.54-1.28-.76-1.59-.12A3,3,0,0,0,92.76,187.33Zm162.41-32.71a1.25,1.25,0,0,0,1.21-1.39,1.41,1.41,0,0,0-1.37-1.44c-.93-.11-1.34.46-1.3,1.33A1.46,1.46,0,0,0,255.17,154.62ZM140.5,233a1.28,1.28,0,0,0-1.07-1.37,1.43,1.43,0,0,0-1.6,1.2c-.22.79.43,1.11,1.07,1.23A1.23,1.23,0,0,0,140.5,233ZM92.44,163.87c-.72,1.57-.56,2.82,1,3.51a1.21,1.21,0,0,0,1-.48C95.27,165,93,165,92.44,163.87Zm32.25-70.66c-.89-1.6-1.62-2.57-3-3.12C121.81,93,121.81,93,124.69,93.21ZM177.51,72.5c3.45-.55,1.57-2.69,1.46-4.19C178.52,69.62,178.06,70.92,177.51,72.5ZM94.84,200.29c-1.55-.75-2.64-.58-3.52.63C92.45,200.78,93.92,203.35,94.84,200.29Zm37.86,49.26c1.1-2.61.39-3.87-2.63-5C131,246.29,132.73,247.28,132.7,249.55Zm-112-127.08c-1.81,1.38-1.89,2.67-1.05,4.46C21.25,125.74,21.37,124.46,20.71,122.47ZM71.16,59.1c1.83-1.44,1.44-2.77,1.1-4.74C71.05,56.08,70.68,57.3,71.16,59.1Zm203.1,79.66c-.47,1.21-2.09,1.58-2.47,3.34C273.59,141.37,274.28,140.32,274.26,138.76Zm19.17,17.05c.78,1.68,1.72,1.7,3.16,1C295.7,155.72,295,155,293.43,155.81ZM96.84,192.49c-.58-1.21-.78-2.32-2-2.67C93.52,192.76,93.52,192.76,96.84,192.49ZM35.49,144.32c1.6-.36,2.79-.5,3.26-2.29C37,141.74,35.74,141.67,35.49,144.32ZM135.78,107c-.93-1.15-1.94-1.31-2.86-.21a1.16,1.16,0,0,0,.42,1.86C134.79,109.18,135.33,108.11,135.78,107ZM55,132.92c-.1-1.85,0-3-1.56-3.37C52.23,131.23,53.68,131.65,55,132.92Zm-4.17,32.4a2.77,2.77,0,0,0,.14,2.91C51.41,167.08,51.86,166.38,50.84,165.32ZM292,155.44c.14-.44.33-.72.27-.92s-.41-.24-.64-.28a.69.69,0,0,0-.21.46A3,3,0,0,0,292,155.44ZM146.07,113.16l-.5.38a4.59,4.59,0,0,0,.55.61s.44-.27.42-.3A6,6,0,0,0,146.07,113.16ZM96.45,99.91a4.55,4.55,0,0,0,0-.52.8.8,0,0,0-.23,0c0,.16,0,.34,0,.51S96.37,99.89,96.45,99.91ZM19.33,132.56a4.27,4.27,0,0,0-.3.44s.15.19.18.17a2.85,2.85,0,0,0,.45-.25Zm95.08,52.82c.08,0,.2,0,.22-.11s0-.17,0-.24l-.35.19C114.3,185.27,114.35,185.33,114.41,185.38Z" transform="translate(-0.76 -2.3)"/><path class="cls-4" d="M11,115.91c.63.45,1.22,1,.62,1.78-2,2.54-2.12,5.48-2,8.52,0,.76.07,1.82-1.13,1.82-.57,0-.66-.68-.74-1.2C8.43,123.06,8.13,119,11,115.91Z" transform="translate(-0.76 -2.3)"/><path class="cls-4" d="M3.52,147.35c1.73,2.34,1.45,6.31-.67,9.65A23,23,0,0,1,3.52,147.35Z" transform="translate(-0.76 -2.3)"/><path class="cls-4" d="M270,313.47c1-3,3.09-4.28,6.11-4.35C275.22,312.23,272.27,312.41,270,313.47Z" transform="translate(-0.76 -2.3)"/><path class="cls-4" d="M300.5,290c.36-2.13.12-4.75,3.56-4.4C304.12,288.05,302.75,289.37,300.5,290Z" transform="translate(-0.76 -2.3)"/><path class="cls-4" d="M282.89,304.57c0-2.67,2.12-2.9,3.95-3.48A5.22,5.22,0,0,1,282.89,304.57Z" transform="translate(-0.76 -2.3)"/><path class="cls-4" d="M2.77,158.82a3.27,3.27,0,0,1,0,2.53A1.92,1.92,0,0,1,2.77,158.82Z" transform="translate(-0.76 -2.3)"/><path class="cls-4" d="M215.69,124.75c0,.22,0,.44,0,.66-1.95,2.24.53,2.47,1.53,3.36a7.12,7.12,0,0,0,2.72,2.24c-.14,2.14-1.88,4.32.21,6.36.08.09.38,0,.74-.07v-2.44c1.92,0,3.61-.18,4.46-2.06l.13,0c.61.06,1.23.11,1.84.19,1,.12,1.91.39,2.21,1.39.37,1.2-.59,1.87-1.33,2.55s-2,.37-1.74,1.77c-.51.8-1.16,1.57-.34,2.53-1.18.36-2.37.68-3.54,1.08s-2.19,1.17-1.42,2.17c1.79,2.27.32,2.72-1.4,3.24l0-.07v-2.19c-2.68,2.23-6,1.27-8.38.81-3.17-.6-4.35-1.2-6.79,1.71h-.91c0-.41-.08-.84-.07-1.24.31-6.47-1.32-8.12-7.74-7.88l-1.79.36c-1.27-.82-2.08.06-3.05.73-1.48,1-3,2.23-5,.86-.86-.6-1.48.15-2.19.62-2.56,1.67-5.21,3.12-8.39,2.08-1,.89-.09,1.89-.39,2.74l0,0c.91-.27,1.79-.6,2.71-.78s1.73-.28,2.28.6-.14,1.36-.62,1.91c-1.41,1.59-.86,4.23-3.13,5.27,7.62,7.14,7.93,7.43,2.94,14.84-2.48-1.45-4.86-3-6.28-6.5-.79,2.66.48,5.71-2.93,6.12-.87.62-.5,1.61-.71,2.43l-1.87.05,0,0c-.64-.82-1.45-1.27-2.38-.58-.75.57-.81,1.3-.11,2.12s-.21,1.37-.64,1.82a27.59,27.59,0,0,0-3.79,5.54l-2.46.23c-.13-.27-.29-.55-.4-.84-1.67-4.3-1.67-4.3-5.55-1.49,1.74,1.45.42,3,.2,4.63l-3.07-5,1.94-2.4a1.59,1.59,0,0,0-1.19-1.55c-4.57-.57-7-3.3-8.09-7.59-.39-1.54-2-.78-2.79-1.39-1.31.88-.69,2.92-2.4,3.24.38-3-1.23-4-3.95-3.82.31-1.07.61-2.14.91-3.2-1.34-1.49-4.11-1.53-4-4.24l0,0,4-3.34c.95-3.2-8.09-3.22-1.4-7.32a5.16,5.16,0,0,0,3.74-.7c0,.64,0,1.27,0,1.91-.94.16-2,.2-2,1.78,1.43-.06,1.68-.94,1.92-1.84,2.46.13,3.35,1,1.43,3.44,2.12.51,4-.53,5.87-.53,2.46,0,2.88-2,3.83-3.82,1-2,3.66-1.48,5.81-1.45.61.94-.31,2.51,1.43,2.72-.81,1.6-2.61,1.93-2.95,3.54,1.23,1.71,3.57,2.14,4.57,4.18s.47,3.1-1.68,3.67c-1.61.42-3.55-.19-4.91,1.3.8,1.4,2,.59,2.92.89,1.46.46,3.22.33,2.84,3-.34,2.44,1.47,1.38,2.69,1-1.3-4.65-1.3-4.65,3-4.41.76-1.52-1.25-1.75-1.36-3.17,1.06-1.51,2.65-3.13,1.24-5.61-.45-.79.9-1.66,1.67-2a2.9,2.9,0,0,0,1.39-4c-1.6-2.66-.52-4.52,1.25-6.34-1.69-2-4.06-.67-5.79-1.81.32-2.25,2.06-3.22,3.65-4.39s2.84-2.32.41-4.14c-1.36-1-1.29-3-1.64-4.88,4-1.12,8-.37,11.92-.36,1.09,0,1.46,1,1.58,2,.31,2.6,2,3.06,4.07,2.26,1.47-.57,3-.38,4.49-1.26s2.48.65,3.26,1.71c1,1.42,1.88,3,3.49,3.81a.73.73,0,0,0,.51-1.06c-2.07-4.91-.53-7.81,4.71-9,1.89-.4,4.41-.33,2-3.6a4.64,4.64,0,0,1,.26-5.35l.09.05c.13,1.38,1.08,2.16,2.08,3a3.89,3.89,0,0,1,1.84,2.72c.29,2.76,2.32,3.46,4.52,2.66,3.36-1.24,5.64-.23,7.57,2.53C214.3,124.08,215.1,124.35,215.69,124.75ZM139,151.58c-.38.94-.39,1.58.46,1.92a.66.66,0,0,0,1-.42C140.5,152.26,140,151.82,139,151.58Zm3.42,2.29c-.08,0-.18-.09-.25-.07s-.1.14-.16.21l.41.14Z" transform="translate(-0.76 -2.3)"/><path class="cls-4" d="M148.32,257.26c1.18-.2,1-2.74,3-1.35-.28-1.06-.47-1.73-.74-2.71,2.38.48,3,3.17,5.12,3.43C153.45,260.4,151.15,260.59,148.32,257.26Z" transform="translate(-0.76 -2.3)"/><path class="cls-4" d="M118.88,279.4c-1.31-.35-3,.35-3.83-1.48,0-1.26,1.09-1.17,2-1.35,2.14.84,4.76.61,6.26,2.85.14.78,0,1.36-.92,1.53A4.11,4.11,0,0,0,118.88,279.4Z" transform="translate(-0.76 -2.3)"/><path class="cls-4" d="M246.47,171.29l.12-1.06c1.3,0,2.07-1.44,3.49-1.32,1.07,1,.29,2.11,0,3.16l-1.88,1.28A4.69,4.69,0,0,0,246.47,171.29Z" transform="translate(-0.76 -2.3)"/><path class="cls-4" d="M117.6,267.37c.27.61.54,1.23.82,1.84l.48,1.25c.07.21.17.42.25.63l-1.52.66a5.23,5.23,0,0,0-2.56-2.48C114.52,266.77,116.48,267.63,117.6,267.37Z" transform="translate(-0.76 -2.3)"/><path class="cls-4" d="M79.94,305.09c-.09-1.51.56-1.95,1.79-1.08.89.62,1.94,1.17,2.25,2.37l-1.61-.13a2.59,2.59,0,0,0-2-.92A1.63,1.63,0,0,0,79.94,305.09Z" transform="translate(-0.76 -2.3)"/><path class="cls-4" d="M209.15,151.11c.41-1.39.56-3.09,3-2.71l-1.81,2.69Z" transform="translate(-0.76 -2.3)"/><path class="cls-4" d="M134.64,256.36c0-.33,0-.67,0-1l1,0Z" transform="translate(-0.76 -2.3)"/><path class="cls-4" d="M83.65,262c.48.79,1.22,1.41,1.09,2.51a2.06,2.06,0,0,0,1.76,2.3c5.14.63,4.4,4.54,4.63,7.94,0,.51,0,1,0,1.64-2.55-3.08-7.76-2.42-8.62-7-2.09.35-.86,2.19-2.21,3.08a54.56,54.56,0,0,1-.93-7.1,3.11,3.11,0,0,1,3-3.37Z" transform="translate(-0.76 -2.3)"/><path class="cls-4" d="M23.52,182.78a7.54,7.54,0,0,1-1.81,5.75c-3.16.12-4.56-1.46-4.52-4.56,0-1.67-.15-3.34-.25-5,.1-.62.18-1.23.26-1.84.79-1.26,1.55-2.61,3.34-2.34s1.95,2,2.29,3.35A39.75,39.75,0,0,1,23.52,182.78Z" transform="translate(-0.76 -2.3)"/><path class="cls-4" d="M74.71,280.6l-1.49.21c.11,1.46,1,1.89,2.06,2.23,1.51.49,2.63,1.46,1.41,2.95-1,1.15-2.32,2.94-4.18,1.45a40.31,40.31,0,0,1-4.53-4.7c-.34-.37-.77-1.19-.62-1.38,2.58-3.17-.22-5.5-1.29-8.13,4.07.29,4.07.29,4.19,2.36l0,0c.15,2,.55,3.79,3.15,3.79.74,0,1,.74,1.23,1.29Z" transform="translate(-0.76 -2.3)"/><path class="cls-4" d="M57.05,273c-.47.94-1.07,2.32-2.19,1.69-1.74-1-3.54-2.23-3.45-4.75,0-1.15-.21-2.47,1.16-2.93s2.16.31,2.57,1.58v0c-.07.47.13.69.6.62h0l1,.18c0,.45,0,.89,0,1.35-.58.68-.66,1.32.18,1.87A1.33,1.33,0,0,0,57.05,273Z" transform="translate(-0.76 -2.3)"/><path class="cls-4" d="M49.4,209.3c.5-.67,1-1.34,2-1,2.13.76,5,4.12,5.54,6.82-1.6-.88-3,.54-4.43.16-2.17-.61-.32-3.14-1.71-4.26Z" transform="translate(-0.76 -2.3)"/><path class="cls-4" d="M95.78,262.61c-1.72-1.48-1.57-3.59-1.82-5.55-.11-.92-.11-2.09,1.09-2.28s1.49.85,1.79,1.78c.09.27.39.48.59.71,0,.66-.07,1.32-.11,2l.07.19c-1,.65-1,1.73-1.1,2.77Z" transform="translate(-0.76 -2.3)"/><path class="cls-4" d="M32.5,246c2.89-2,4.56.18,6.55,1.27-.34,2.14-1.89,1.84-3.35,1.89C33.41,249.22,33.15,247.46,32.5,246Z" transform="translate(-0.76 -2.3)"/><path class="cls-4" d="M26.57,212.67c2.78,1.79,2.05,3.9,1.76,6.45C26.44,217.13,25.52,215.42,26.57,212.67Z" transform="translate(-0.76 -2.3)"/><path class="cls-4" d="M65.9,242.75l-1.3.57c-.84-.11-1.77.17-2.45-.6.15-1.16-.23-2.4.57-3.45l2.33.79,0,0C65.36,241,65.64,241.86,65.9,242.75Z" transform="translate(-0.76 -2.3)"/><path class="cls-4" d="M103.36,268.89c.88,1.81.32,2.83.1,4-1.78-.4-2.88-1.16-3.2-3C101.2,269.18,102.47,270,103.36,268.89Z" transform="translate(-0.76 -2.3)"/><path class="cls-4" d="M47.85,257.16c2-.25,3.18,0,3.17,2.24C49.37,259.54,48.22,259.29,47.85,257.16Z" transform="translate(-0.76 -2.3)"/><path class="cls-4" d="M71.38,264.48l4.41.61C73.87,266.52,73.08,266.42,71.38,264.48Z" transform="translate(-0.76 -2.3)"/><path class="cls-4" d="M12.88,168.81c.88,2,1,3.32-.65,4.61C10.68,171.71,11,170.4,12.88,168.81Z" transform="translate(-0.76 -2.3)"/><path class="cls-4" d="M54.76,264.33c-2.64.67-2.77.58-3.29-2.64C52.57,262.77,54.14,262.57,54.76,264.33Z" transform="translate(-0.76 -2.3)"/><path class="cls-4" d="M43.83,255.14c-1.19-1.55-1.19-1.55-1.19-3.45C45.15,252.51,45.18,252.6,43.83,255.14Z" transform="translate(-0.76 -2.3)"/><path class="cls-4" d="M77.5,255.38c.1-.52.2-1,.29-1.55,1.51,0,3,1.19,4.56-.24C82.05,256.51,81.28,256.73,77.5,255.38Z" transform="translate(-0.76 -2.3)"/><path class="cls-4" d="M8.85,201.36c2.14,1.46,1.8,3,1.87,4.5A6.59,6.59,0,0,1,8.85,201.36Z" transform="translate(-0.76 -2.3)"/><path class="cls-4" d="M61.93,215.14c0,.58-.12,1.05-.77,1.11a1.22,1.22,0,0,1-1.3-1.07.86.86,0,0,1,.8-1.09C61.39,214,61.77,214.48,61.93,215.14Z" transform="translate(-0.76 -2.3)"/><path class="cls-4" d="M85,290.75c0,.62,0,1.24-.08,1.87-2.08,0-2.17-1.43-2.22-2.94l.49-.51C83.75,289.7,84.35,290.23,85,290.75Z" transform="translate(-0.76 -2.3)"/><path class="cls-4" d="M45.12,256.25c.4-.86.85-1.26,1.53-.9a.75.75,0,0,1,.13,1.27C46.26,257.09,45.71,256.69,45.12,256.25Z" transform="translate(-0.76 -2.3)"/><path class="cls-4" d="M97.38,262.63c-.06.49,0,1.17-.6,1.23-.8.09-.73-.77-1-1.25l.51-.4Z" transform="translate(-0.76 -2.3)"/><path class="cls-4" d="M55.14,268.62l.63.63h0l-.6-.62Z" transform="translate(-0.76 -2.3)"/><path class="cls-4" d="M74.68,280.62l0,0Z" transform="translate(-0.76 -2.3)"/><path class="cls-4" d="M82.66,289.68c-.08-.4,0-.6.48-.51C83,289.34,82.83,289.51,82.66,289.68Z" transform="translate(-0.76 -2.3)"/><path class="cls-4" d="M83.55,212.45l0,0Z" transform="translate(-0.76 -2.3)"/><path class="cls-4" d="M308.55,148.71c.11-.62.24-1.23.35-1.86,2.13.07,4.38,1.09,6.25-.84a28.79,28.79,0,0,0,4.3,2.3c1.82.6.25,2.34,1.32,3.07l.81.52a5.36,5.36,0,0,0,2.56,3.4c.52.29,1.35.8,1.35,1.2-.08,3.63,3.22,4.86,5.08,7,1.61,1.86,4.45.79,6.59,1.65l.46.64.2-.18-.53-.6a2.08,2.08,0,0,1,1.81-1.84c.85,2,0,4.46,1.37,6.52,2.08-1.28.57-3.74,2.37-4.91l1.56,2.33c-.86.51-.53,1.13-.16,1.76a16.4,16.4,0,0,1-.91,5.6c-.72-.06-.41-1.34-1.63-.87.18,1.72.36,3.51.54,5.31-.39-.2-.8-.39-1.2-.6-.28-1.3.09-2.93-1.88-3.7-1.21,1.79-.64,3.12.67,4.38-.26,1.27,1.48,2.29.46,3.65-2,.63-2.41,2.14-2.36,4a12.9,12.9,0,0,1-.75,5.57c-1.83.42-2.82,1.79-3.73,3.26a1.73,1.73,0,0,0-.31.07c-3.15,1.38-3.32,6.58-8.38,5.56,3.72,2.27,4,5.32,3,8-2,4.75,0,9.89-2,14.61-.52,1.2.41,3,.68,4.54-1.45-.51-2.89,1.26-4.34,0,.06-1.08,1.36-1.94.66-3.13a1.12,1.12,0,0,0-1.07-.23c-1.14.76-.7,2-.88,3.1a4,4,0,0,0,0,.92c0,.8-.08,1.59-.13,2.38-.4.32-1,.56-1.17,1-1.48,3.31-3.37,6.2-7.56,6.91-.51-.38-1.35-1-2.19-1.56-.24-1.16.52-2,1.09-2.82.66-1,1.14-2.41.33-3.24-2.18-2.26-.31-3.52,1.13-4.43a5.77,5.77,0,0,0,2.83-4.58l0,0c1,.85.24,2.54,1.76,3.5.76-2,1.48-4,2.21-5.93a3.8,3.8,0,0,0,.87-3.22c1.73-1,1.57-2,0-2.94-2.67-1.67-5.68-2.77-7.86-5-1.67.88-1.33,2.21-1.37,3.42l0,0-1.32,0,0,0c-.08-2.82-1-5.05-4-5.87-.13-1-.27-2-.41-3,.83-.92,1.64-1.37,2.31.15.56,2.06,1.82,1.86,3.39.84l-3.1-1.12c.37-2.6-.37-4.39-3.32-4.56l-2,.48,0,0h-.09l-.67-1c.37-2,1.77-1.95,3.2-1.42a2.85,2.85,0,0,0-.35-2.27c4.46-2,5.22-5.88,1.83-9.29-.44-.68-.88-1.34-1.31-2,1.12-2.55-1.49-2.26-2.44-3.23a15,15,0,0,0,3.71-8.15c.1-1.11-.45-2.32.54-3.42,1,1.49,2,2.49,3.36.09a19.13,19.13,0,0,0,2.32-7.41c2.57,1.79-1,5,2.22,7.26.19-3.79,2.17-6.84,2.41-10.44.18-1.53.33-3.06-.76-4.37C314.61,150.73,311.2,150.29,308.55,148.71Zm3.07,53.75c-.37-1.61-.89-2.25-2.31-1.49C309.53,202.2,310.21,202.56,311.62,202.46Z" transform="translate(-0.76 -2.3)"/><path class="cls-4" d="M337.34,113.58c1.79,5.07,3.65,10.12,4.1,15.53-1.66-.07-3.93-.43-3.05,2.28,1.34,4.1-.33,7.47-1.82,11l-1.21.28c-2-1.78-3.3.62-4.95.91l-2-.56.15-.08c-2.12-2.49-2.18-6.4-5.77-8-1-.45-1.53-2.11-2.28-3.22.78-1.8,0-3.43-.52-5.09-.05-.62-.11-1.24-.17-1.85.17-1,.26-2-.75-2.77l-.82-.33c-.26-1.85.68-4.11-1.78-5.22v0a13.69,13.69,0,0,1,1.29-9c.82-.8,1.65.49,2.39-.15.81-3.07,2.22-4.75,4.4-5.22,1.82.38,1.72-1.62,2.71-2.35a42.63,42.63,0,0,0,3.2,7.2Z" transform="translate(-0.76 -2.3)"/><path class="cls-4" d="M270.64,78.91c-.53-3.09-2.29-4.72-5.49-4.6a4,4,0,0,1,1.36-3.85l0,0c-1.61-1.53-3.77-2.57-4.74-4.67,1-.9,1.7-.42,2.39-.34,1.77.21,3-.29,2.69-2.32-.2-1.47.63-2.35,1.5-3.26l2.47,1.93c2.92-1.8,3.4-1.61,3.79,1.89.19,1.62,2.27,3.07.34,4.74,2.55,2,5.79,2.33,7.94,4.5.71.71,2.14,1.58,1.13,2.87-.84,1.08-2.59,1.83-3.6,1.2-1.43-.9-2.54-.33-3.8-.18-1,.05-2.25-.51-3.18.84a4.69,4.69,0,0,0,3.74,1.75c.86,2.14-.33,2.69-2.13,2.78v.24l-1-.33.07,0c.13-1.44-.92-1.68-2-2C272,79.43,271.29,79.17,270.64,78.91Zm7.73-3.26c1.29-.58,1-1.4.3-2.21s-1.5-1.36-2.66-.26l1.29,1.07Z" transform="translate(-0.76 -2.3)"/><path class="cls-4" d="M88.62,27.68c-.53.52-1.19,1.18-.33,1.75,1.56,1,.52,2.12.27,3.21l0-.06c-3.09-1.2-6.12-3.13-9.56-1a5.71,5.71,0,0,1,1.3-2.87,1.79,1.79,0,0,0,1.4-1.69c1.26-.32,2.75-.26,3.06-2,2.38-.88,4.71-2.16,7.29-.64Z" transform="translate(-0.76 -2.3)"/><path class="cls-4" d="M346.7,157.91c-.7-1.89-3.78-.77-4.07-3.27a31.57,31.57,0,0,1,2-9.78c.42,2.16.7,4.09,2.86,4.59.77,1.39,2.35,2.37,2.14,4.26-.34.45-.67.89-1,1.35C348.84,156.59,346.83,156.63,346.7,157.91Z" transform="translate(-0.76 -2.3)"/><path class="cls-4" d="M313.34,106.37c-.08-1.67-.17-3.34-.25-5l.89-1.66c1.61,1.25,1,3,.9,4.55,0,1-.61,2,.4,2.85a5.27,5.27,0,0,1-.19.56l-1.31.08C313.64,107.28,313.49,106.82,313.34,106.37Z" transform="translate(-0.76 -2.3)"/><path class="cls-4" d="M302.48,109.56l-1.54-1.83c-.17-1-2-1.74-.09-2.91.8-.49.08-1.48-.33-2.17,3.47.57,1.32,3.41,2.06,5.09C302.54,108.35,302.51,109,302.48,109.56Z" transform="translate(-0.76 -2.3)"/><path class="cls-4" d="M295,52.83l3,.82c.22.77.45,1.54.68,2.31-.18.22-.35.44-.53.65C297.24,55.19,295.4,54.59,295,52.83Z" transform="translate(-0.76 -2.3)"/><path class="cls-4" d="M301.84,54.27c-2.17-.74-2.92-1.68-2.56-3.67C300.81,51.29,301.29,52.4,301.84,54.27Z" transform="translate(-0.76 -2.3)"/><path class="cls-4" d="M272.85,31.32,274.92,33c-2.21.35-3.2-.91-4.35-1.79Z" transform="translate(-0.76 -2.3)"/><path class="cls-4" d="M347.94,146.22c-1.24-.14-1.13-.81-.63-1.63A1.31,1.31,0,0,1,347.94,146.22Z" transform="translate(-0.76 -2.3)"/><path class="cls-4" d="M293.53,227.78c0,2,.1,3.91,1.57,5.56,1.82,2-.39,7-3.37,9-2.07,1.4-4.37,2.69-2.8,6.21a5.44,5.44,0,0,0-4.67,1,3.62,3.62,0,0,1,1.22-3.6l0,0a10.18,10.18,0,0,0,3.66-5.68,4.7,4.7,0,0,1,2.1-3.61c1.2-.74,1.33-2.19-.61-2.66-1.32-.32-2.72-.46-3.45-1.85-3.31,2.69-3.31,2.69-5.73-.46a7.25,7.25,0,0,0-7.67-2.64c3.28-2.65,1.68-5.12,1.51-7.63-.28-4.39,3.05-7.07,5.68-9.95a12.24,12.24,0,0,0,2.93-4c1.08-2.87,3.95-1.63,6.06-2.1h2.24c-.14,2.37.89,3.77,3.17,4.26a2,2,0,0,1,1.67,1.65c-1.92.29-3.65,1.52-6.16.83a4.2,4.2,0,0,1-.87,5.13c1.66,1.31,2.74,2.62,2.26,4.69-.19.84.42,1.33,1.09,1.71A8.37,8.37,0,0,0,293.53,227.78Z" transform="translate(-0.76 -2.3)"/><path class="cls-4" d="M304.42,237.06c.05,2.3-2.07,1-2.73,2.05a1.72,1.72,0,0,1,0-2.54,4.42,4.42,0,0,0,1-4.64c-.33-1.11-.24-2.17,1.18-2.42a1.75,1.75,0,0,1,2.2,1.67,5.29,5.29,0,0,0,.61,2.07c1.7,3,1.3,3.6-2.25,3.84Z" transform="translate(-0.76 -2.3)"/><path class="cls-4" d="M284.2,278.77,281,280.1c-1-.75-2.61-.52-3.46-2.19,2.71-.44,4.81-2.46,7.53-2.68C286.11,277,284.61,277.7,284.2,278.77Z" transform="translate(-0.76 -2.3)"/><path class="cls-4" d="M300.57,228.25c-.11-2.4-.71-4.89,1.34-6.86,1.67.19,2.84,1.21,2.6,2.8C304.2,226.29,303.05,228,300.57,228.25Z" transform="translate(-0.76 -2.3)"/><path class="cls-4" d="M332,220.55c1.82,3.37,1.13,5.27-1.93,5.84C328.31,223.78,329.4,222.08,332,220.55Z" transform="translate(-0.76 -2.3)"/><path class="cls-4" d="M277.62,232.44a2.57,2.57,0,0,1,2.33,2.3,1.61,1.61,0,0,1-1.75,1.77,2.85,2.85,0,0,1-2.49-2.8C275.66,232.64,276.6,232.47,277.62,232.44Z" transform="translate(-0.76 -2.3)"/><path class="cls-4" d="M302.5,189.16l2.78-.55c-.22,2.15-.24,4.45-3.5,3.72.09-.44.19-.89.28-1.34C302.21,190.37,302.36,189.77,302.5,189.16Z" transform="translate(-0.76 -2.3)"/><path class="cls-4" d="M281.65,207.06l-2.53-.9c.54-.69.87-1.85,2-1.4S282.13,206.15,281.65,207.06Z" transform="translate(-0.76 -2.3)"/><path class="cls-4" d="M315.15,222.52c-.68,0-1.54.54-1.83-.52-.23-.88.26-1.37,1.17-1.41.8.49.44,1.32.62,2Z" transform="translate(-0.76 -2.3)"/><path class="cls-4" d="M310.72,212.42s0,0,0,0Z" transform="translate(-0.76 -2.3)"/><path class="cls-4" d="M309.42,212.43l0,0Z" transform="translate(-0.76 -2.3)"/><path class="cls-4" d="M299.93,228.23h0Z" transform="translate(-0.76 -2.3)"/><path class="cls-4" d="M97.6,125c.75.53,1.12,1.56,2.31,1.67.86-.71,1.39-2,2.87-2,.79,0,1.72-.57,2.1.66a1.37,1.37,0,0,1-1,2c-2.42.82-1.72,2.18-.57,3.57,2.11,2.55,2.73,5.69,3.28,8.77.39,2.2-1.33,2.94-3.6,2.66,1.19,2.49,2.75,1.85,4,1.34,2.08-.83,3.94-.14,5.8.53,1.07.4,2.36,1.22,1.31,2.54-.75,1-2.15,2.15-3.43.75-1.59-1.73-2.63-1.25-3.65.43-.37.59-1,1.21-1.49.87-2.46-1.52-5-.7-7.58-.61a2.39,2.39,0,0,1-2.43-1.66c-.56-1.41.63-1.75,2.45-2.64-5.18-.25-5.44-2.53-4.26-6,1-2.9-.53-5.48-2.08-8a9.93,9.93,0,0,1-.93-9.69c.83-2.13.22-4.78,2.91-6.07l-.06,0a4.32,4.32,0,0,0,3.59,3.12,4.78,4.78,0,0,1,3.16,1.89c.89,1.38.93,2.81-1.1,2.94s-2.38.92-2,2.59C97.11,124.89,97.26,125,97.6,125Z" transform="translate(-0.76 -2.3)"/><path class="cls-4" d="M191.25,100.86c.83-.36,2.39.08,1.93-1.7s-1.52-1.14-2.66-.7c-1.38.53-2.83.76-3.88-1,1-.65,2.67-.08,2.75-1.92S188,93.74,187,93.16c-3-1.63-1.9-4.44-1.84-6.94l0,0c1.23-.24,2.45-.5,3.68-.71.6-.1,1.7-.3,1.76-.14,1.59,4,6.67,2.23,8.75,5.45a6.52,6.52,0,0,0,4.23,2.6c-1.94,3-4.91,4.5-6.43,7.26a3,3,0,0,0-2.52.82C193,103.65,192.1,102.32,191.25,100.86Z" transform="translate(-0.76 -2.3)"/><path class="cls-4" d="M73.22,113.64c-.35,1.29.78,2.26-.1,3.43-1.55-.59-1.4-2.16-1.8-3.1-2.52.29-4.45,2.55-7.16,1.59-.8-.29-1.63-.75-1.38-1.83a1.29,1.29,0,0,1,1.93-1c1,.43,1.56,0,2.21-.62,1.81-1.85,4.33-1.92,6.64-2.43,1.42-.32,1.84,1.13,2.39,2.06a1.87,1.87,0,0,1-.16,2.59C74.77,115.2,74.11,114.1,73.22,113.64Z" transform="translate(-0.76 -2.3)"/><path class="cls-4" d="M115.68,109.56c.13.4.14.9.4,1.18,2.69,2.88,2.7,2.87-.71,5.59-.82-.94,0-2.6-1.68-3.41.22,3.35-1.86,3.19-4.07,2.76-1.9-.38-2.22-1.7-1.79-3.33.27-1,1-2,2-1.64,2.32,1,4-.61,5.93-1.09Z" transform="translate(-0.76 -2.3)"/><path class="cls-4" d="M185.16,86.22l-2.21.46c-1.2,1,1.29,1.73-.18,2.57a5.31,5.31,0,0,1-3.92-5.51c.18-1.82,1.31-2.18,5.51-1.7.71,1.31.54,2.81.75,4.23Z" transform="translate(-0.76 -2.3)"/><path class="cls-4" d="M84.55,156.55c-2.7.34-.29,6.4-4.58,4.11-1.57-.83-3-3.43-1.6-5C80.11,153.67,82.38,155.62,84.55,156.55Z" transform="translate(-0.76 -2.3)"/><path class="cls-4" d="M102.19,155.37c3.27-.19,4.87,1.95,7,2.14.61,1.26-.15,2-.64,2.75-.69,1-1.19,2.52-2.72,2.26s-1.57-1.83-1.6-3.06C104.18,158,103.39,156.94,102.19,155.37Z" transform="translate(-0.76 -2.3)"/><path class="cls-4" d="M115.72,109.62c.83-3,3.43-2.71,5.59-2.87,1.3-.11,1.37,1.37,1.22,2.41-.18,1.31-1,2.16-2.39,1.83s-3-.94-4.46-1.43Z" transform="translate(-0.76 -2.3)"/><path class="cls-4" d="M59.21,89.79c.08-3.35,5.93-1.37,4.15-5.55,1.47-.6,2.32.05,3.49.87C64.85,87.73,62.83,89.7,59.21,89.79Z" transform="translate(-0.76 -2.3)"/><path class="cls-4" d="M84.19,104.54c-2.18-.16-2.7-2.25-4.33-3.35,2.45-.58,3.12,0,4.29,3.39Z" transform="translate(-0.76 -2.3)"/><path class="cls-4" d="M158.29,127.82c-.74,1.06-1.53,1.32-2.27.65s-.67-1.63-.1-2.63C157.25,126,157.49,127.22,158.29,127.82Z" transform="translate(-0.76 -2.3)"/><path class="cls-4" d="M68.76,83c-1.24.09-2.06-.25-2.09-1,0-1.18,1-1.66,2-2.11C69.45,81,68.89,81.92,68.76,83Z" transform="translate(-0.76 -2.3)"/><path class="cls-4" d="M194.83,83.92c-.05,1.52-.68,2.17-2.21,2.27C192.49,84.49,193.2,83.9,194.83,83.92Z" transform="translate(-0.76 -2.3)"/><path class="cls-4" d="M112.63,175.91c-2-.23-2.94-.84-2-2.86C112.22,173.4,112.23,174.62,112.63,175.91Z" transform="translate(-0.76 -2.3)"/><path class="cls-4" d="M129.64,155.64l-3.22.64,0,0c.46-1,.47-2.19,1.62-3.06l1.52,2.42Z" transform="translate(-0.76 -2.3)"/><path class="cls-4" d="M127,146.13c0,.7-.27,1-.75,1s-.9,0-1-.55a.89.89,0,0,1,.88-1.07C126.48,145.54,126.78,146,127,146.13Z" transform="translate(-0.76 -2.3)"/><path class="cls-4" d="M159.31,142.93c.35-.26.57-.53.78-.53s.34.36.43.59c0,.07-.26.37-.37.36A3.58,3.58,0,0,1,159.31,142.93Z" transform="translate(-0.76 -2.3)"/><path class="cls-4" d="M60.2,123.51c.09-.16.19-.3.28-.46.27.44-.2.29-.33.42Z" transform="translate(-0.76 -2.3)"/><polygon class="cls-4" points="103.76 104.84 103.54 104.85 103.63 104.66 103.76 104.84"/><polygon class="cls-4" points="101.64 118.49 101.82 118.66 101.6 118.73 101.64 118.49"/><path class="cls-4" d="M106.21,102.65h0Z" transform="translate(-0.76 -2.3)"/><path class="cls-4" d="M126.42,156.28l0,0Z" transform="translate(-0.76 -2.3)"/><path class="cls-4" d="M243.77,52.3A2.63,2.63,0,0,1,242,50.9c-.23-.85-1.16-1.49-.67-2.65,1.66,1.27,3.61,2.06,4.79,3.89C245.35,52.86,244.52,52.08,243.77,52.3Z" transform="translate(-0.76 -2.3)"/><path class="cls-4" d="M225.55,60.87l-4.37-.82c-.15-1.26.41-1.7,1.64-1.46.91.18,1.62,1,2.67.75a1.27,1.27,0,0,0,.39,0C225.76,59.86,225.65,60.36,225.55,60.87Z" transform="translate(-0.76 -2.3)"/><path class="cls-4" d="M255.34,60.29a2.18,2.18,0,0,1,2.48,1.22C255.92,63,255.92,63,255.34,60.29Z" transform="translate(-0.76 -2.3)"/><path class="cls-4" d="M210.36,44.64c.76,0,1.66-.3,2,1-1.15.53-1.56-.26-2-1.06Z" transform="translate(-0.76 -2.3)"/><path class="cls-4" d="M210.39,44.61l-1.08-.8c1,0,.9.52,1.05.83Z" transform="translate(-0.76 -2.3)"/><path class="cls-4" d="M188.72,159.45c-1.44.38-1.92,1.35-1.26,2.62,1.09,2.08,2.57-.15,4.27.27.18,2.85.55,5.82.49,8.78-.05,2-5.77,4.07-7.06,2.62S184,170,184.08,168.3c.09-3.74.85-7.5,3.5-10.5Q188.17,158.63,188.72,159.45Z" transform="translate(-0.76 -2.3)"/><path class="cls-4" d="M194.6,167.65c0-2,0-2,1.13-3.32C196.89,166,196.89,166,194.6,167.65Z" transform="translate(-0.76 -2.3)"/><path class="cls-4" d="M167.41,170.12c0,.18,0,.36-.07.54,0-.17.07-.34.11-.51Z" transform="translate(-0.76 -2.3)"/><polygon class="cls-4" points="199.47 15.59 199.47 15.4 199.64 15.5 199.47 15.59"/><path class="cls-4" d="M89.85,32.63c.12-.37.08-.87.68-.84.06,0,.19.15.18.21-.07.52-.42.64-.9.58Z" transform="translate(-0.76 -2.3)"/><path class="cls-4" d="M88.56,32.64h1.29l0-.05c-.39.92-.8.93-1.21,0Z" transform="translate(-0.76 -2.3)"/><path class="cls-4" d="M133.39,39l0,0Z" transform="translate(-0.76 -2.3)"/><path class="cls-4" d="M234.35,121.57a1.4,1.4,0,0,0,.34.18c.08.71-1.22,2.06.85,1.87,0,.59,0,1.18.05,1.77a3.24,3.24,0,0,1-2,2.92,8.47,8.47,0,0,0-4.16,3.54c-1.85-.34-2.18-2.51-3.9-2.68.06-1,.13-1.95.19-2.92l4.08-.26c-1-1.91-2.24-3.18-4.17-3.64-.11-.12-.23-.25-.35-.36,3.69-3,5.66-3.13,7.85-.39l-2.45.28c.2,1.19,1.66,1.6,1.19,3.25,1.34-1.29.91-2.53,1.23-3.56Z" transform="translate(-0.76 -2.3)"/><path class="cls-4" d="M183.87,37.77c-1.55-.44-3.55.43-5.17-2.06,2.32.93,4.24.8,5.75,2.07A1.26,1.26,0,0,0,183.87,37.77Z" transform="translate(-0.76 -2.3)"/><path class="cls-4" d="M117,229c-.07,0-.18-.06-.2-.11s0-.14.09-.22l.21.11A2.14,2.14,0,0,1,117,229Z" transform="translate(-0.76 -2.3)"/><path class="cls-4" d="M66.78,242.7c-.31.39-.62.6-1,0Z" transform="translate(-0.76 -2.3)"/><path class="cls-4" d="M225.61,122.35c-.3.08-.43,0-.35-.36C225.38,122.1,225.5,122.23,225.61,122.35Z" transform="translate(-0.76 -2.3)"/></g></g></g></svg>