<svg id="Layer_1" data-name="Layer 1" xmlns="http://www.w3.org/2000/svg" viewBox="0 0 346.39 341.26"><defs><style>.cls-1{fill:#f39222;}.cls-2{fill:#f9af3c;}</style></defs><path class="cls-1" d="M271.51,181.92a96.32,96.32,0,1,1-96.32-96.31A96.32,96.32,0,0,1,271.51,181.92Z" transform="translate(-2 -6.12)"/><path class="cls-2" d="M205.14,66.65a4.26,4.26,0,0,1-2.27-.65c-.22-.12-8.21-4.67-27.68-4.67-19.65,0-27.6,4.63-27.68,4.68a4.36,4.36,0,0,1-5.28-.62,4.31,4.31,0,0,1-.73-5.23L171.45,8.29a4.32,4.32,0,0,1,7.49,0l29.95,51.87a4.33,4.33,0,0,1-3.75,6.49Z" transform="translate(-2 -6.12)"/><path class="cls-2" d="M124,74.37a4.36,4.36,0,0,1-2.16,1c-.25,0-9.29,1.69-24.2,14.21s-18.17,21.28-18.2,21.37A4.36,4.36,0,0,1,75,113.84a4.29,4.29,0,0,1-3.92-3.53l-10.41-59a4.33,4.33,0,0,1,5.74-4.82L122.73,67a4.33,4.33,0,0,1,2.83,4.53A4.37,4.37,0,0,1,124,74.37Z" transform="translate(-2 -6.12)"/><path class="cls-2" d="M66.87,132.41a4.25,4.25,0,0,1-1,2.13c-.16.19-6,7.27-9.4,26.44-3.41,19.36-.24,28-.21,28.07a4.38,4.38,0,0,1-1.52,5.1,4.31,4.31,0,0,1-5.28-.19L3.54,155.46a4.34,4.34,0,0,1,1.3-7.38L61.13,127.6a4.32,4.32,0,0,1,5.74,4.81Z" transform="translate(-2 -6.12)"/><path class="cls-2" d="M60.39,213.62a4.4,4.4,0,0,1,.58,2.3c0,.25.06,9.44,9.79,26.29,9.82,17,17.81,21.6,17.89,21.64a4.4,4.4,0,0,1,2.11,4.88A4.31,4.31,0,0,1,86.59,272H26.69A4.34,4.34,0,0,1,23,269.82a4.28,4.28,0,0,1,0-4.32l30-51.88a4.33,4.33,0,0,1,7.49,0Z" transform="translate(-2 -6.12)"/><path class="cls-2" d="M107.63,280a4.34,4.34,0,0,1,1.91,1.39c.16.19,6.12,7.19,24.41,13.85,18.47,6.72,27.52,5.09,27.61,5.08a4.37,4.37,0,0,1,4.75,2.38,4.31,4.31,0,0,1-1.1,5.17l-45.89,38.5a4.32,4.32,0,0,1-7-2.57l-10.4-59a4.33,4.33,0,0,1,5.74-4.82Z" transform="translate(-2 -6.12)"/><path class="cls-2" d="M186.48,300.49a4.28,4.28,0,0,1,2.36-.17c.24,0,9.31,1.58,27.59-5.08,18.47-6.72,24.36-13.79,24.42-13.86a4.38,4.38,0,0,1,5.17-1.23,4.32,4.32,0,0,1,2.48,4.67l-10.39,59a4.38,4.38,0,0,1-2.79,3.31,4.33,4.33,0,0,1-4.26-.75l-45.89-38.5a4.33,4.33,0,0,1,1.31-7.38Z" transform="translate(-2 -6.12)"/><path class="cls-2" d="M260.05,265.5a4.33,4.33,0,0,1,1.69-1.65c.22-.12,8.16-4.78,17.88-21.63,9.83-17,9.8-26.22,9.8-26.31a4.38,4.38,0,0,1,3.17-4.27,4.32,4.32,0,0,1,4.9,2l30,51.87a4.37,4.37,0,0,1,0,4.33A4.3,4.3,0,0,1,323.7,272H263.79a4.34,4.34,0,0,1-4.2-3.3A4.29,4.29,0,0,1,260.05,265.5Z" transform="translate(-2 -6.12)"/><path class="cls-2" d="M293.92,191.4a4.32,4.32,0,0,1,.23-2.35c.09-.24,3.18-8.9-.21-28.06-3.4-19.36-9.34-26.39-9.4-26.45a4.41,4.41,0,0,1-.32-5.31,4.32,4.32,0,0,1,5-1.63l56.29,20.48a4.33,4.33,0,0,1,1.3,7.38L301,194a4.34,4.34,0,0,1-5.34.18A4.27,4.27,0,0,1,293.92,191.4Z" transform="translate(-2 -6.12)"/><path class="cls-2" d="M272.23,112.87a4.29,4.29,0,0,1-1.33-2c-.08-.23-3.28-8.85-18.2-21.36s-24.11-14.2-24.2-14.22a4.37,4.37,0,0,1-3.65-3.86,4.31,4.31,0,0,1,2.8-4.48l56.28-20.5a4.38,4.38,0,0,1,4.26.76,4.32,4.32,0,0,1,1.48,4.07l-10.39,59a4.34,4.34,0,0,1-7,2.56Z" transform="translate(-2 -6.12)"/></svg>